<svg width="16" height="12" viewBox="0 0 16 12" fill="none" xmlns="http://www.w3.org/2000/svg">
<path d="M0.21792 5.37923L4.97925 0.6179C5.26975 0.327399 5.74088 0.327399 6.03138 0.6179C6.32194 0.90846 6.32194 1.37947 6.03138 1.67003L2.54008 5.16134H15.256C15.6669 5.16134 16 5.49445 16 5.9053C16 6.31608 15.6669 6.64925 15.256 6.64925H2.54008L6.03126 10.1406C6.32183 10.4311 6.32183 10.9021 6.03126 11.1927C5.88604 11.3379 5.69559 11.4106 5.5052 11.4106C5.3148 11.4106 5.12441 11.3379 4.97913 11.1927L0.21792 6.43136C-0.0726395 6.1408 -0.0726395 5.66979 0.21792 5.37923Z" fill="#FF800B"/>
</svg>
