<svg width="24" height="26" viewBox="0 0 24 26" fill="none" xmlns="http://www.w3.org/2000/svg">
<path d="M0.591072 21.8633H4.72751V25.4092C4.72751 25.5817 4.78271 25.7229 4.89377 25.8333C5.00452 25.9444 5.14611 26 5.31858 26H8.40223C8.56227 26 8.70075 25.9444 8.81772 25.8333C8.93469 25.7229 8.993 25.5817 8.993 25.4092V21.8633H18.3183C18.4904 21.8633 18.632 21.8084 18.743 21.6973C18.8541 21.5863 18.9093 21.445 18.9093 21.2724V18.9087C18.9093 18.7372 18.8541 18.595 18.743 18.4846C18.6323 18.3734 18.4904 18.3179 18.3183 18.3179H8.99269V16.1388H15.2711C17.7331 16.1388 19.7425 15.3886 21.3002 13.8861C22.8573 12.3852 23.6363 10.4463 23.6363 8.06941C23.6363 5.69411 22.8573 3.7552 21.3002 2.25272C19.7428 0.751723 17.733 0 15.2711 0H5.31828C5.14575 0 5.00447 0.0555038 4.89346 0.165951C4.78271 0.277009 4.7272 0.419209 4.7272 0.590767V12.2061H0.591072C0.418598 12.2061 0.277264 12.2645 0.166257 12.3814C0.0555549 12.4983 0 12.6368 0 12.7968V15.548C0 15.7205 0.0551981 15.8618 0.166257 15.9728C0.277315 16.0839 0.418292 16.1388 0.591072 16.1388H4.72751V18.3178H0.591072C0.418598 18.3178 0.277264 18.3734 0.166257 18.4845C0.0555549 18.5949 0 18.7368 0 18.9087V21.2724C0 21.4449 0.0551981 21.5862 0.166257 21.6973C0.277264 21.8084 0.418547 21.8633 0.591072 21.8633ZM8.99269 3.93364H14.9018C16.2066 3.93364 17.2589 4.31513 18.0594 5.07837C18.8594 5.84166 19.2596 6.83915 19.2596 8.06972C19.2596 9.30089 18.8594 10.2987 18.0594 11.0611C17.2589 11.825 16.2065 12.2065 14.9018 12.2065H8.99269V3.93364Z" fill="white"/>
</svg>
