<svg width="18" height="20" viewBox="0 0 18 20" fill="none" xmlns="http://www.w3.org/2000/svg">
<path d="M1.4092 16.1361H4.27289V18.591C4.27289 18.7104 4.3111 18.8082 4.38799 18.8846C4.46467 18.9615 4.56269 19 4.68209 19H6.81693C6.92772 19 7.02359 18.9615 7.10457 18.8846C7.18555 18.8082 7.22592 18.7104 7.22592 18.591V16.1361H13.6819C13.801 16.1361 13.8991 16.0981 13.9759 16.0212C14.0529 15.9444 14.091 15.8465 14.091 15.7271V14.0906C14.091 13.9719 14.0529 13.8734 13.9759 13.797C13.8993 13.7201 13.801 13.6816 13.6819 13.6816H7.22571V12.173H11.5723C13.2768 12.173 14.6679 11.6537 15.7463 10.6135C16.8243 9.57434 17.3636 8.23205 17.3636 6.58651C17.3636 4.94208 16.8243 3.59975 15.7463 2.55958C14.6681 1.52042 13.2767 1 11.5723 1H4.68188C4.56244 1 4.46463 1.03843 4.38778 1.11489C4.3111 1.19178 4.27268 1.29022 4.27268 1.40899V9.45038H1.4092C1.2898 9.45038 1.19195 9.49078 1.1151 9.57172C1.03846 9.6527 1 9.74857 1 9.85933V11.764C1 11.8834 1.03821 11.9813 1.1151 12.0581C1.19199 12.135 1.28959 12.173 1.4092 12.173H4.27289V13.6816H1.4092C1.2898 13.6816 1.19195 13.72 1.1151 13.797C1.03846 13.8734 1 13.9717 1 14.0906V15.727C1 15.8465 1.03821 15.9443 1.1151 16.0212C1.19195 16.0981 1.28976 16.1361 1.4092 16.1361ZM7.22571 3.72329H11.3166C12.2199 3.72329 12.9485 3.9874 13.5027 4.5158C14.0565 5.04423 14.3336 5.7348 14.3336 6.58673C14.3336 7.43908 14.0565 8.12986 13.5027 8.65766C12.9485 9.18651 12.2199 9.45063 11.3166 9.45063H7.22571V3.72329Z" fill="#31384E" stroke="#31384E" stroke-width="0.2"/>
</svg>
