<svg width="16" height="12" viewBox="0 0 16 12" fill="none" xmlns="http://www.w3.org/2000/svg">
<path d="M15.7821 5.37923L11.0208 0.6179C10.7303 0.327399 10.2591 0.327399 9.96862 0.6179C9.67806 0.90846 9.67806 1.37947 9.96862 1.67003L13.4599 5.16134H0.743958C0.333115 5.16134 0 5.49445 0 5.9053C0 6.31608 0.333115 6.64925 0.743958 6.64925H13.4599L9.96874 10.1406C9.67817 10.4311 9.67817 10.9021 9.96874 11.1927C10.114 11.3379 10.3044 11.4106 10.4948 11.4106C10.6852 11.4106 10.8756 11.3379 11.0209 11.1927L15.7821 6.43136C16.0726 6.1408 16.0726 5.66979 15.7821 5.37923Z" fill="white"/>
</svg>
