<svg width="40" height="40" viewBox="0 0 40 40" fill="none" xmlns="http://www.w3.org/2000/svg">
<path fill-rule="evenodd" clip-rule="evenodd" d="M20 0C8.9543 0 0 8.9543 0 20C0 31.0457 8.9543 40 20 40C31.0457 40 40 31.0457 40 20C40 8.9543 31.0457 0 20 0ZM15.6027 9.39794C16.7405 9.34616 17.1041 9.3335 20.001 9.3335H19.9976C22.8955 9.3335 23.2577 9.34616 24.3955 9.39794C25.531 9.44994 26.3066 9.62972 26.9866 9.8935C27.6888 10.1657 28.2822 10.5302 28.8755 11.1235C29.4689 11.7164 29.8333 12.3115 30.1066 13.0131C30.3689 13.6913 30.5489 14.4664 30.6022 15.602C30.6533 16.7398 30.6666 17.1034 30.6666 20.0003C30.6666 22.8972 30.6533 23.2599 30.6022 24.3977C30.5489 25.5328 30.3689 26.3081 30.1066 26.9866C29.8333 27.6879 29.4689 28.283 28.8755 28.8759C28.2828 29.4693 27.6886 29.8346 26.9873 30.107C26.3086 30.3708 25.5326 30.5506 24.397 30.6026C23.2592 30.6544 22.8968 30.6671 19.9996 30.6671C17.1029 30.6671 16.7396 30.6544 15.6018 30.6026C14.4665 30.5506 13.6911 30.3708 13.0125 30.107C12.3113 29.8346 11.7162 29.4693 11.1236 28.8759C10.5304 28.283 10.166 27.6879 9.89332 26.9863C9.62976 26.3081 9.44998 25.533 9.39776 24.3974C9.3462 23.2596 9.33331 22.8972 9.33331 20.0003C9.33331 17.1034 9.34665 16.7396 9.39754 15.6018C9.44865 14.4667 9.62865 13.6913 9.8931 13.0129C10.1664 12.3115 10.5309 11.7164 11.1242 11.1235C11.7171 10.5304 12.3122 10.1659 13.0138 9.8935C13.692 9.62972 14.4671 9.44994 15.6027 9.39794Z" fill="white"/>
<path fill-rule="evenodd" clip-rule="evenodd" d="M19.0442 11.2556C19.23 11.2553 19.4298 11.2554 19.6455 11.2555L20.0011 11.2556C22.8491 11.2556 23.1867 11.2658 24.3113 11.3169C25.3513 11.3645 25.9158 11.5383 26.2918 11.6843C26.7896 11.8776 27.1445 12.1087 27.5176 12.4821C27.8909 12.8554 28.122 13.211 28.3158 13.7087C28.4618 14.0843 28.6358 14.6487 28.6832 15.6888C28.7343 16.8132 28.7454 17.151 28.7454 19.9977C28.7454 22.8444 28.7343 23.1822 28.6832 24.3066C28.6356 25.3466 28.4618 25.9111 28.3158 26.2866C28.1225 26.7844 27.8909 27.1389 27.5176 27.512C27.1443 27.8853 26.7898 28.1164 26.2918 28.3098C25.9162 28.4564 25.3513 28.6298 24.3113 28.6773C23.1869 28.7284 22.8491 28.7396 20.0011 28.7396C17.1528 28.7396 16.8153 28.7284 15.6908 28.6773C14.6508 28.6293 14.0863 28.4556 13.7101 28.3096C13.2123 28.1162 12.8568 27.8851 12.4834 27.5118C12.1101 27.1384 11.879 26.7838 11.6852 26.2858C11.5392 25.9102 11.3652 25.3457 11.3179 24.3057C11.2668 23.1813 11.2565 22.8435 11.2565 19.995C11.2565 17.1465 11.2668 16.8105 11.3179 15.6861C11.3654 14.6461 11.5392 14.0816 11.6852 13.7056C11.8785 13.2078 12.1101 12.8523 12.4834 12.4789C12.8568 12.1056 13.2123 11.8745 13.7101 11.6807C14.0861 11.534 14.6508 11.3607 15.6908 11.3129C16.6748 11.2685 17.0561 11.2552 19.0442 11.2529V11.2556ZM25.6948 13.0263C24.9881 13.0263 24.4148 13.599 24.4148 14.3059C24.4148 15.0126 24.9881 15.5859 25.6948 15.5859C26.4015 15.5859 26.9748 15.0126 26.9748 14.3059C26.9748 13.5992 26.4015 13.0259 25.6948 13.0259V13.0263ZM14.523 20.0003C14.523 16.9752 16.9756 14.5226 20.0006 14.5225C23.0258 14.5225 25.4778 16.9752 25.4778 20.0003C25.4778 23.0254 23.026 25.477 20.0008 25.477C16.9757 25.477 14.523 23.0254 14.523 20.0003Z" fill="white"/>
<path d="M20.0009 16.4443C21.9645 16.4443 23.5565 18.0361 23.5565 19.9999C23.5565 21.9635 21.9645 23.5555 20.0009 23.5555C18.0371 23.5555 16.4453 21.9635 16.4453 19.9999C16.4453 18.0361 18.0371 16.4443 20.0009 16.4443Z" fill="white"/>
</svg>
