<svg width="165" height="164" viewBox="0 0 165 164" fill="none" xmlns="http://www.w3.org/2000/svg">
<path d="M78.3015 44.4294C90.2459 34.7151 108.227 41.5739 110.668 56.7752L117.075 96.6821C119.516 111.883 104.585 124.026 90.2001 118.539L52.4362 104.135C38.0511 98.6476 35.0003 79.646 46.9447 69.9317L78.3015 44.4294Z" fill="#F0F3FC"/>
<path d="M116.376 81.6124C115.95 81.1517 115.342 80.8613 114.666 80.8613H108.944V64.9574C108.944 64.4286 108.515 64 107.986 64H66.0134C65.4845 64 65.0559 64.4286 65.0559 64.9574V80.8611H59.3338C58.658 80.8611 58.0502 81.1517 57.6236 81.6123C57.2379 82.0289 57 82.584 57 83.195V121.666C57 122.953 58.0469 124 59.3338 124H114.666C115.953 124 117 122.953 117 121.666V83.195C117 82.584 116.762 82.0289 116.376 81.6124ZM66.0134 85.6368C66.5423 85.6368 66.9708 85.2082 66.9708 84.6793V65.9149H107.029V84.6793C107.029 85.2082 107.458 85.6368 107.986 85.6368C108.515 85.6368 108.944 85.2082 108.944 84.6793V82.776H113.796L88.0775 109.561C87.7894 109.861 87.4067 110.026 87 110.026C86.5933 110.026 86.2104 109.861 85.9224 109.561L60.204 82.776H65.0559V84.6793C65.0559 85.2082 65.4846 85.6368 66.0134 85.6368ZM114.666 122.085H59.3338C59.1067 122.085 58.9149 121.893 58.9149 121.666V84.1983L76.4213 102.431L61.0173 118.473C60.6512 118.855 60.6634 119.461 61.0449 119.827C61.2305 120.005 61.4693 120.094 61.7078 120.094C61.9594 120.094 62.2105 119.996 62.3986 119.8L77.7487 103.813L84.5411 110.887C85.1937 111.567 86.067 111.941 87.0001 111.941C87.9332 111.941 88.8064 111.567 89.4591 110.887L96.2515 103.813L102.255 110.066C102.443 110.262 102.695 110.36 102.946 110.36C103.185 110.36 103.424 110.271 103.609 110.093C103.991 109.727 104.003 109.121 103.637 108.74L97.5789 102.431L115.085 84.1983V121.666C115.085 121.893 114.893 122.085 114.666 122.085Z" fill="#2656F3"/>
<path d="M106.684 111.913C106.318 111.532 105.712 111.52 105.33 111.886C104.949 112.252 104.936 112.858 105.303 113.239L111.601 119.8C111.789 119.995 112.04 120.094 112.292 120.094C112.53 120.094 112.769 120.005 112.955 119.827C113.336 119.461 113.349 118.855 112.983 118.473L106.684 111.913Z" fill="#2656F3"/>
<path d="M75.6888 95.6596H93.7779C95.4273 95.6596 96.7692 94.3176 96.7692 92.6682C96.7692 92.0793 96.5981 91.5294 96.3032 91.066C97.0874 90.5261 97.6024 89.6223 97.6024 88.6005C97.6024 88.0116 97.4313 87.4618 97.1363 86.9984C97.9205 86.4585 98.4355 85.5547 98.4355 84.5329C98.4355 83.944 98.2643 83.394 97.9692 82.9306C98.7536 82.3908 99.2686 81.4869 99.2686 80.4651C99.2686 78.8158 97.9266 77.4738 96.2772 77.4738L90.8464 77.4739C91.753 75.5321 92.2418 73.2275 92.2418 70.8211C92.2418 69.1717 90.8998 67.8298 89.2505 67.8298C87.6011 67.8298 86.2592 69.1717 86.2592 70.8211C86.2592 74.4894 83.2747 77.4738 79.6064 77.4738H75.6889C75.1601 77.4738 74.7315 77.9024 74.7315 78.4313V94.7021C74.7314 95.231 75.1601 95.6596 75.6888 95.6596ZM88.1739 70.8211C88.1739 70.2276 88.6567 69.7447 89.2504 69.7447C89.844 69.7447 90.3268 70.2275 90.3268 70.8211C90.3268 73.5068 89.6506 76.024 88.4229 77.9089C88.2311 78.2033 88.2159 78.579 88.3833 78.8878C88.5507 79.1966 88.8738 79.389 89.2251 79.389L96.2771 79.3888C96.8706 79.3888 97.3535 79.8716 97.3535 80.4653C97.3535 81.0589 96.8707 81.5417 96.2771 81.5417H93.7781C93.2492 81.5417 92.8206 81.9702 92.8206 82.4991C92.8206 83.028 93.2492 83.4566 93.7781 83.4566H95.4441C96.0376 83.4566 96.5206 83.9395 96.5206 84.5331C96.5206 85.1268 96.0378 85.6096 95.4441 85.6096H93.7781C93.2492 85.6096 92.8206 86.0381 92.8206 86.567C92.8206 87.0959 93.2492 87.5245 93.7781 87.5245H94.611C95.2045 87.5245 95.6875 88.0073 95.6875 88.6009C95.6875 89.1945 95.2047 89.6773 94.611 89.6773H93.7781C93.2492 89.6773 92.8206 90.1059 92.8206 90.6348C92.8206 91.1636 93.2492 91.5922 93.7781 91.5922C94.3715 91.5922 94.8545 92.0751 94.8545 92.6688C94.8545 93.2624 94.3715 93.7447 93.7781 93.7447H80.5638V79.3338C84.8388 78.8561 88.1739 75.2215 88.1739 70.8211ZM76.6463 79.3887H78.6489V93.7447H76.6463V79.3887Z" fill="#5FEADA"/>
</svg>
