<svg width="165" height="164" viewBox="0 0 165 164" fill="none" xmlns="http://www.w3.org/2000/svg">
<path d="M78.3015 44.4294C90.246 34.7151 108.227 41.5739 110.668 56.7752L117.075 96.6821C119.516 111.883 104.585 124.026 90.2002 118.539L52.4362 104.135C38.0511 98.6476 35.0003 79.646 46.9448 69.9317L78.3015 44.4294Z" fill="#F0F3FC"/>
<path d="M57.056 92.014H63.5464L65.8765 96.6743C66.0386 96.9986 66.3701 97.2036 66.7328 97.2036C67.0955 97.2036 67.427 96.9987 67.5891 96.6743L69.9193 92.014H70.3947C70.9235 92.014 71.3522 91.5854 71.3522 91.0566C71.3522 90.5277 70.9235 90.0991 70.3947 90.0991H69.3276C68.9649 90.0991 68.6334 90.3039 68.4713 90.6284L66.7328 94.1052L64.9945 90.6284C64.8323 90.3041 64.5008 90.0991 64.1381 90.0991H57.056C56.9782 90.0991 56.9149 90.0359 56.9149 89.9582V66.056C56.9149 65.9782 56.9782 65.9149 57.056 65.9149H76.4097C76.4875 65.9149 76.5509 65.9782 76.5509 66.056V76.4354C76.5509 76.9643 76.9795 77.3929 77.5083 77.3929C78.0371 77.3929 78.4657 76.9643 78.4657 76.4354V66.056C78.4657 64.9223 77.5434 64 76.4097 64H57.056C55.9223 64 55 64.9223 55 66.056V89.958C55 91.0918 55.9223 92.014 57.056 92.014Z" fill="#2656F3"/>
<path d="M66.7329 67.8298C64.0919 67.8298 61.9434 69.9783 61.9434 72.6194C61.9434 75.2604 64.092 77.409 66.7329 77.409C69.3738 77.409 71.5224 75.2604 71.5224 72.6194C71.5224 69.9783 69.3738 67.8298 66.7329 67.8298ZM66.7329 75.494C65.1477 75.494 63.8583 74.2044 63.8583 72.6192C63.8583 71.0343 65.1477 69.7447 66.7329 69.7447C68.318 69.7447 69.6075 71.0343 69.6075 72.6194C69.6075 74.2045 68.3179 75.494 66.7329 75.494Z" fill="#2656F3"/>
<path d="M66.733 81.2386C67.8588 81.2386 68.9557 81.5525 69.9047 82.1462C70.3532 82.4268 70.9437 82.2909 71.2242 81.8425C71.5046 81.3942 71.3687 80.8034 70.9205 80.523C69.6665 79.7384 68.2184 79.3235 66.733 79.3235C62.3751 79.3237 58.8298 82.869 58.8298 87.2267C58.8298 87.7556 59.2585 88.1841 59.7873 88.1841H70.3948C70.9235 88.1841 71.3522 87.7556 71.3522 87.2267C71.3522 86.6978 70.9235 86.2692 70.3948 86.2692H60.8212C61.2809 83.421 63.7569 81.2386 66.733 81.2386Z" fill="#2656F3"/>
<path d="M112.944 64H93.5904C92.4566 64 91.5343 64.9223 91.5343 66.056V76.4354C91.5343 76.9643 91.9629 77.3929 92.4917 77.3929C93.0206 77.3929 93.4492 76.9643 93.4492 76.4354V66.056C93.4492 65.9782 93.5125 65.9149 93.5904 65.9149H112.944C113.022 65.9149 113.085 65.9782 113.085 66.056V89.958C113.085 90.0358 113.022 90.099 112.944 90.099H105.862C105.499 90.099 105.168 90.3039 105.005 90.6283L103.267 94.1051L101.529 90.6283C101.366 90.3039 101.035 90.099 100.672 90.099H99.6053C99.0764 90.099 98.6479 90.5275 98.6479 91.0564C98.6479 91.5853 99.0764 92.0139 99.6053 92.0139H100.081L102.411 96.6742C102.573 96.9986 102.905 97.2035 103.267 97.2035C103.63 97.2035 103.961 96.9986 104.124 96.6742L106.454 92.0139H112.944C114.078 92.0139 115 91.0915 115 89.958V66.056C115 64.9223 114.078 64 112.944 64Z" fill="#2656F3"/>
<path d="M103.267 67.8298C100.626 67.8298 98.4775 69.9783 98.4775 72.6194C98.4775 75.2604 100.626 77.409 103.267 77.409C105.908 77.409 108.057 75.2604 108.057 72.6194C108.057 69.9783 105.908 67.8298 103.267 67.8298ZM103.267 75.494C101.682 75.494 100.392 74.2044 100.392 72.6192C100.392 71.0342 101.682 69.7446 103.267 69.7446C104.852 69.7446 106.142 71.0342 106.142 72.6192C106.142 74.2045 104.852 75.494 103.267 75.494Z" fill="#2656F3"/>
<path d="M98.6478 87.2267C98.6478 87.7556 99.0763 88.1842 99.6052 88.1842H110.213C110.742 88.1842 111.17 87.7556 111.17 87.2267C111.17 82.869 107.625 79.3237 103.267 79.3237C101.782 79.3237 100.334 79.7385 99.0797 80.5232C98.6315 80.8036 98.4955 81.3944 98.7758 81.8427C99.0564 82.2909 99.6469 82.4269 100.095 82.1464C101.045 81.5527 102.141 81.2388 103.267 81.2388C106.243 81.2388 108.719 83.4212 109.179 86.2694H99.6054C99.0765 86.2693 98.6478 86.698 98.6478 87.2267Z" fill="#2656F3"/>
<path d="M73.2672 81.3629V105.265C73.2672 106.399 74.1895 107.321 75.3231 107.321H81.8136L84.1436 111.981C84.3059 112.306 84.6374 112.511 85 112.511C85.3625 112.511 85.6942 112.306 85.8563 111.981L88.1865 107.321H94.6768C95.8106 107.321 96.7328 106.399 96.7328 105.265V81.3629C96.7328 80.2293 95.8104 79.3071 94.6768 79.3071H75.3231C74.1895 79.3069 73.2672 80.2293 73.2672 81.3629ZM94.818 81.3629V105.265C94.818 105.343 94.7547 105.406 94.6769 105.406H87.5949C87.2322 105.406 86.9007 105.611 86.7386 105.935L85.0001 109.412L83.2617 105.935C83.0996 105.611 82.7681 105.406 82.4054 105.406H75.3232C75.2455 105.406 75.1822 105.343 75.1822 105.265V81.3629C75.1822 81.2852 75.2455 81.222 75.3232 81.222H94.6769C94.7547 81.2218 94.818 81.285 94.818 81.3629Z" fill="#2656F3"/>
<path d="M85 92.7159C87.6409 92.7159 89.7896 90.5673 89.7896 87.9262C89.7896 85.2852 87.6411 83.1367 85 83.1367C82.359 83.1367 80.2105 85.2852 80.2105 87.9262C80.2105 90.5673 82.359 92.7159 85 92.7159ZM85 85.0517C86.5851 85.0517 87.8747 86.3414 87.8747 87.9264C87.8747 89.5115 86.5851 90.8011 85 90.8011C83.4149 90.8011 82.1254 89.5115 82.1254 87.9264C82.1254 86.3414 83.4149 85.0517 85 85.0517Z" fill="#5FEADA"/>
<path d="M78.0542 103.491H91.9455C92.4744 103.491 92.903 103.063 92.903 102.534C92.903 98.1761 89.3577 94.6309 85 94.6309C80.6422 94.6309 77.0968 98.1761 77.0968 102.534C77.0968 103.063 77.5255 103.491 78.0542 103.491ZM85 96.5456C87.976 96.5456 90.4519 98.7281 90.9117 101.576H79.0883C79.5479 98.7281 82.0238 96.5456 85 96.5456Z" fill="#5FEADA"/>
<path d="M103.702 120.234C104.265 120.234 104.723 119.776 104.723 119.213C104.723 118.65 104.265 118.192 103.702 118.192C103.139 118.192 102.681 118.65 102.681 119.213C102.681 119.776 103.139 120.234 103.702 120.234Z" fill="#2656F3"/>
<path d="M98.4681 120.234C99.0312 120.234 99.4893 119.776 99.4893 119.213C99.4893 118.65 99.0312 118.192 98.4681 118.192C97.9049 118.192 97.4468 118.65 97.4468 119.213C97.4468 119.776 97.9049 120.234 98.4681 120.234Z" fill="#2656F3"/>
<path d="M108.936 120.234C109.499 120.234 109.957 119.776 109.957 119.213C109.957 118.65 109.499 118.192 108.936 118.192C108.373 118.192 107.915 118.65 107.915 119.213C107.915 119.776 108.373 120.234 108.936 120.234Z" fill="#2656F3"/>
<path d="M114.043 114.426H55.9574C55.4287 114.426 55 114.854 55 115.383V123.043C55 123.571 55.4287 124 55.9574 124H114.043C114.571 124 115 123.571 115 123.043V115.383C115 114.854 114.571 114.426 114.043 114.426ZM56.9149 116.34H92.3404V122.085H56.9149V116.34ZM113.085 122.085H94.2553V116.34H113.085V122.085Z" fill="#2656F3"/>
</svg>
