<svg width="151" height="43" viewBox="0 0 151 43" fill="none" xmlns="http://www.w3.org/2000/svg">
<path d="M7.91787 20.229C12.568 20.229 15.8986 23.371 15.8986 27.7698C15.8986 32.1686 12.6309 35.3107 7.91787 35.3107C3.26769 35.3107 0 32.1686 0 27.7698C0 23.371 3.26769 20.229 7.91787 20.229ZM7.91787 32.2315C10.243 32.2315 11.814 30.4091 11.814 27.7698C11.814 25.1305 10.243 23.3082 7.91787 23.3082C5.59278 23.3082 4.02177 25.1305 4.02177 27.7698C4.02177 30.4091 5.65562 32.2315 7.91787 32.2315Z" fill="#1158F6"/>
<path d="M28.7809 35.0594H25.7646L25.2619 33.8654C24.445 34.808 23.1881 35.3108 21.7428 35.3108C19.2292 35.3108 17.4697 33.6141 17.4697 31.1005V24.3137H21.3029V30.4721C21.3029 31.4775 21.9942 32.2316 22.9996 32.2316C24.1308 32.2316 24.9477 31.3518 24.9477 30.095V24.3137H28.7809C28.7809 24.3137 28.7809 35.0594 28.7809 35.0594Z" fill="#1158F6"/>
<path d="M35.8817 24.3136H38.4581V27.2043H35.8817V31.1004C35.8817 31.7916 36.3216 32.2315 37.0128 32.2315C37.3898 32.2315 37.8297 32.1687 38.2696 32.1058L38.7723 34.9336C37.8297 35.185 36.95 35.3107 36.133 35.3107C33.7451 35.3107 32.1113 33.8025 32.1113 31.5403V27.2043H30.2889V24.3136H32.0484V21.1716H35.8817V24.3136Z" fill="#1158F6"/>
<path d="M50.712 24.0623C54.2939 24.0623 56.8075 26.3873 56.8075 29.7179C56.8075 32.9856 54.2939 35.3107 50.712 35.3107C47.1301 35.3107 44.6165 32.9856 44.6165 29.7179C44.6165 26.3873 47.1301 24.0623 50.712 24.0623ZM50.712 32.3572C52.0316 32.3572 52.9742 31.226 52.9742 29.7179C52.9742 28.1469 52.0316 27.0157 50.712 27.0157C49.3924 27.0157 48.5126 28.1469 48.5126 29.7179C48.5126 31.226 49.3924 32.3572 50.712 32.3572Z" fill="#1158F6"/>
<path d="M59.0699 27.2044H57.2475V24.3137H59.0699V23.3083C59.0699 21.046 60.7037 19.5378 63.0917 19.5378C63.9086 19.5378 64.7883 19.6635 65.7309 19.9149L65.2282 22.7427C64.7883 22.6799 64.3485 22.617 63.9714 22.617C63.2802 22.617 62.8403 23.0569 62.8403 23.7481V24.3765H65.0397V27.2672H62.8403V35.1222H59.0699V27.2044Z" fill="#1158F6"/>
<path d="M131.399 4.07917C126.497 4.07917 122.099 5.96438 118.768 8.98071C116.066 4.20485 110.976 1 105.132 1C97.151 1 90.5528 6.96982 89.6102 14.6992C88.2905 14.2593 86.908 14.0708 85.4627 14.0708C77.9219 14.0708 71.8264 20.292 71.8264 27.8328C71.8264 35.3736 77.9219 41.5948 85.4627 41.5948H131.399C141.705 41.5948 150 33.1114 150 22.8056C150.062 12.5626 141.705 4.07917 131.399 4.07917Z" stroke="#166CF7" stroke-miterlimit="10"/>
<path d="M84.4572 32.1686C85.6512 32.1686 86.7195 31.7288 87.8506 30.9747L89.4216 33.614C87.7249 34.7451 85.7768 35.3107 83.8916 35.3107C79.3043 35.3107 76.0994 32.1686 76.0994 27.7698C76.0994 23.371 79.3043 20.229 83.8916 20.229C85.7768 20.229 87.7249 20.8574 89.4216 21.9257L87.8506 24.565C86.7195 23.8109 85.5883 23.371 84.4572 23.371C81.9436 23.371 80.1841 25.1934 80.1841 27.7698C80.1841 30.3463 81.9436 32.1686 84.4572 32.1686Z" fill="#1158F6"/>
<path d="M94.6374 35.3108C92.3123 35.3108 90.9926 33.9284 90.9926 31.7918V19.7893H94.8259V31.4148C94.8259 31.9175 95.0773 32.2317 95.58 32.2317C95.8313 32.2317 96.0827 32.1688 96.3969 32.1688L96.7739 35.0595C96.0827 35.248 95.3286 35.3108 94.6374 35.3108Z" fill="#1158F6"/>
<path d="M122.476 35.1852H119.208L118.705 33.9284C117.888 34.871 116.632 35.3109 115.186 35.3109C112.673 35.3109 110.913 33.5513 110.913 31.1006V24.251H114.746V30.4722C114.746 31.4776 115.563 32.2317 116.569 32.2317C117.7 32.2317 118.642 31.3519 118.642 30.0951V24.3138H122.476V35.1852Z" fill="#1158F6"/>
<path d="M132.09 19.7263V25.0049C130.833 24.3765 130.205 23.9995 129.074 23.9995C126.12 23.9995 123.921 26.3245 123.921 29.6551C123.921 32.9856 125.932 35.3107 128.885 35.3107C130.142 35.3107 131.273 34.9337 132.09 34.1167L132.593 35.185H135.923V19.7263H132.09ZM132.153 30.2206C132.153 31.4146 131.273 32.2944 130.142 32.2944C128.885 32.2944 127.943 31.1632 127.943 29.6551C127.943 28.0841 128.822 27.0158 130.079 27.0158C131.21 27.0158 132.09 27.8955 132.153 29.0895V30.2206Z" fill="#1158F6"/>
<path d="M103.309 24.0623C99.7274 24.0623 97.2137 26.3873 97.2137 29.7179C97.2137 32.9856 99.7274 35.3107 103.309 35.3107C106.891 35.3107 109.405 32.9856 109.405 29.7179C109.405 26.3873 106.891 24.0623 103.309 24.0623ZM103.309 32.3572C101.99 32.3572 101.11 31.2889 101.11 29.7179C101.11 28.1469 101.99 27.0157 103.309 27.0157C104.566 27.0157 105.509 28.084 105.571 29.7179C105.571 31.226 104.629 32.3572 103.309 32.3572Z" fill="#1158F6"/>
</svg>
