<svg width="516" height="218" viewBox="0 0 516 218" fill="none" xmlns="http://www.w3.org/2000/svg">
<path d="M2.216 133C2.216 132.04 2.29067 131.176 2.44 130.408C2.58933 129.619 2.84533 128.893 3.208 128.232C3.592 127.571 4.104 126.952 4.744 126.376C5.40533 125.8 6.23733 125.235 7.24 124.68C8.11467 124.211 8.88267 123.805 9.544 123.464C10.2267 123.101 10.792 122.771 11.24 122.472C11.688 122.173 12.0293 121.875 12.264 121.576C12.4987 121.256 12.616 120.893 12.616 120.488C12.616 119.848 12.36 119.304 11.848 118.856C11.336 118.387 10.6 118.152 9.64 118.152C9.128 118.152 8.65867 118.227 8.232 118.376C7.80533 118.504 7.4 118.685 7.016 118.92C6.65333 119.155 6.312 119.421 5.992 119.72C5.69333 119.997 5.416 120.296 5.16 120.616L2.408 117.448C2.68533 117.149 3.08 116.829 3.592 116.488C4.104 116.125 4.70133 115.795 5.384 115.496C6.088 115.176 6.856 114.92 7.688 114.728C8.54133 114.515 9.448 114.408 10.408 114.408C11.496 114.408 12.4667 114.547 13.32 114.824C14.1733 115.08 14.888 115.453 15.464 115.944C16.0613 116.413 16.5093 116.989 16.808 117.672C17.128 118.333 17.288 119.059 17.288 119.848C17.288 120.595 17.1493 121.256 16.872 121.832C16.5947 122.408 16.2427 122.92 15.816 123.368C15.3893 123.816 14.92 124.211 14.408 124.552C13.9173 124.872 13.4373 125.16 12.968 125.416C12.584 125.629 12.1467 125.875 11.656 126.152C11.1653 126.429 10.6747 126.739 10.184 127.08C9.71467 127.4 9.27733 127.741 8.872 128.104C8.46667 128.445 8.15733 128.787 7.944 129.128H17.64V133H2.216ZM37.7825 123.624C37.7825 125.032 37.5692 126.333 37.1425 127.528C36.7372 128.701 36.1612 129.725 35.4145 130.6C34.6892 131.453 33.8145 132.125 32.7905 132.616C31.7878 133.085 30.6998 133.32 29.5265 133.32C28.3318 133.32 27.2332 133.085 26.2305 132.616C25.2278 132.125 24.3532 131.453 23.6065 130.6C22.8812 129.725 22.3052 128.701 21.8785 127.528C21.4732 126.333 21.2705 125.032 21.2705 123.624C21.2705 122.216 21.4732 120.925 21.8785 119.752C22.3052 118.557 22.8812 117.533 23.6065 116.68C24.3532 115.805 25.2278 115.123 26.2305 114.632C27.2332 114.141 28.3318 113.896 29.5265 113.896C30.6998 113.896 31.7878 114.141 32.7905 114.632C33.8145 115.123 34.6892 115.805 35.4145 116.68C36.1612 117.533 36.7372 118.557 37.1425 119.752C37.5692 120.925 37.7825 122.216 37.7825 123.624ZM33.4625 123.624C33.4625 122.771 33.3665 121.992 33.1745 121.288C32.9825 120.563 32.7052 119.944 32.3425 119.432C32.0012 118.92 31.5852 118.525 31.0945 118.248C30.6252 117.971 30.1025 117.832 29.5265 117.832C28.9292 117.832 28.3852 117.971 27.8945 118.248C27.4252 118.525 27.0092 118.92 26.6465 119.432C26.3052 119.944 26.0385 120.563 25.8465 121.288C25.6545 121.992 25.5585 122.771 25.5585 123.624C25.5585 124.477 25.6545 125.256 25.8465 125.96C26.0385 126.664 26.3052 127.272 26.6465 127.784C27.0092 128.296 27.4252 128.691 27.8945 128.968C28.3852 129.245 28.9292 129.384 29.5265 129.384C30.1025 129.384 30.6252 129.245 31.0945 128.968C31.5852 128.691 32.0012 128.296 32.3425 127.784C32.7052 127.272 32.9825 126.664 33.1745 125.96C33.3665 125.256 33.4625 124.477 33.4625 123.624ZM66.4062 123.624C66.4062 125.032 66.1929 126.333 65.7662 127.528C65.3609 128.701 64.7849 129.725 64.0382 130.6C63.3129 131.453 62.4382 132.125 61.4142 132.616C60.4116 133.085 59.3236 133.32 58.1502 133.32C56.9556 133.32 55.8569 133.085 54.8542 132.616C53.8516 132.125 52.9769 131.453 52.2302 130.6C51.5049 129.725 50.9289 128.701 50.5022 127.528C50.0969 126.333 49.8942 125.032 49.8942 123.624C49.8942 122.216 50.0969 120.925 50.5022 119.752C50.9289 118.557 51.5049 117.533 52.2302 116.68C52.9769 115.805 53.8516 115.123 54.8542 114.632C55.8569 114.141 56.9556 113.896 58.1502 113.896C59.3236 113.896 60.4116 114.141 61.4142 114.632C62.4382 115.123 63.3129 115.805 64.0382 116.68C64.7849 117.533 65.3609 118.557 65.7662 119.752C66.1929 120.925 66.4062 122.216 66.4062 123.624ZM62.0862 123.624C62.0862 122.771 61.9902 121.992 61.7982 121.288C61.6062 120.563 61.3289 119.944 60.9662 119.432C60.6249 118.92 60.2089 118.525 59.7182 118.248C59.2489 117.971 58.7262 117.832 58.1502 117.832C57.5529 117.832 57.0089 117.971 56.5182 118.248C56.0489 118.525 55.6329 118.92 55.2702 119.432C54.9289 119.944 54.6622 120.563 54.4702 121.288C54.2782 121.992 54.1822 122.771 54.1822 123.624C54.1822 124.477 54.2782 125.256 54.4702 125.96C54.6622 126.664 54.9289 127.272 55.2702 127.784C55.6329 128.296 56.0489 128.691 56.5182 128.968C57.0089 129.245 57.5529 129.384 58.1502 129.384C58.7262 129.384 59.2489 129.245 59.7182 128.968C60.2089 128.691 60.6249 128.296 60.9662 127.784C61.3289 127.272 61.6062 126.664 61.7982 125.96C61.9902 125.256 62.0862 124.477 62.0862 123.624ZM86.7025 123.624C86.7025 125.032 86.4892 126.333 86.0625 127.528C85.6572 128.701 85.0812 129.725 84.3345 130.6C83.6092 131.453 82.7345 132.125 81.7105 132.616C80.7078 133.085 79.6198 133.32 78.4465 133.32C77.2518 133.32 76.1532 133.085 75.1505 132.616C74.1478 132.125 73.2732 131.453 72.5265 130.6C71.8012 129.725 71.2252 128.701 70.7985 127.528C70.3932 126.333 70.1905 125.032 70.1905 123.624C70.1905 122.216 70.3932 120.925 70.7985 119.752C71.2252 118.557 71.8012 117.533 72.5265 116.68C73.2732 115.805 74.1478 115.123 75.1505 114.632C76.1532 114.141 77.2518 113.896 78.4465 113.896C79.6198 113.896 80.7078 114.141 81.7105 114.632C82.7345 115.123 83.6092 115.805 84.3345 116.68C85.0812 117.533 85.6572 118.557 86.0625 119.752C86.4892 120.925 86.7025 122.216 86.7025 123.624ZM82.3825 123.624C82.3825 122.771 82.2865 121.992 82.0945 121.288C81.9025 120.563 81.6252 119.944 81.2625 119.432C80.9212 118.92 80.5052 118.525 80.0145 118.248C79.5452 117.971 79.0225 117.832 78.4465 117.832C77.8492 117.832 77.3052 117.971 76.8145 118.248C76.3452 118.525 75.9292 118.92 75.5665 119.432C75.2252 119.944 74.9585 120.563 74.7665 121.288C74.5745 121.992 74.4785 122.771 74.4785 123.624C74.4785 124.477 74.5745 125.256 74.7665 125.96C74.9585 126.664 75.2252 127.272 75.5665 127.784C75.9292 128.296 76.3452 128.691 76.8145 128.968C77.3052 129.245 77.8492 129.384 78.4465 129.384C79.0225 129.384 79.5452 129.245 80.0145 128.968C80.5052 128.691 80.9212 128.296 81.2625 127.784C81.6252 127.272 81.9025 126.664 82.0945 125.96C82.2865 125.256 82.3825 124.477 82.3825 123.624ZM106.999 123.624C106.999 125.032 106.785 126.333 106.359 127.528C105.953 128.701 105.377 129.725 104.631 130.6C103.905 131.453 103.031 132.125 102.007 132.616C101.004 133.085 99.9161 133.32 98.7427 133.32C97.5481 133.32 96.4494 133.085 95.4467 132.616C94.4441 132.125 93.5694 131.453 92.8227 130.6C92.0974 129.725 91.5214 128.701 91.0947 127.528C90.6894 126.333 90.4867 125.032 90.4867 123.624C90.4867 122.216 90.6894 120.925 91.0947 119.752C91.5214 118.557 92.0974 117.533 92.8227 116.68C93.5694 115.805 94.4441 115.123 95.4467 114.632C96.4494 114.141 97.5481 113.896 98.7427 113.896C99.9161 113.896 101.004 114.141 102.007 114.632C103.031 115.123 103.905 115.805 104.631 116.68C105.377 117.533 105.953 118.557 106.359 119.752C106.785 120.925 106.999 122.216 106.999 123.624ZM102.679 123.624C102.679 122.771 102.583 121.992 102.391 121.288C102.199 120.563 101.921 119.944 101.559 119.432C101.217 118.92 100.801 118.525 100.311 118.248C99.8414 117.971 99.3187 117.832 98.7427 117.832C98.1454 117.832 97.6014 117.971 97.1107 118.248C96.6414 118.525 96.2254 118.92 95.8627 119.432C95.5214 119.944 95.2547 120.563 95.0627 121.288C94.8707 121.992 94.7747 122.771 94.7747 123.624C94.7747 124.477 94.8707 125.256 95.0627 125.96C95.2547 126.664 95.5214 127.272 95.8627 127.784C96.2254 128.296 96.6414 128.691 97.1107 128.968C97.6014 129.245 98.1454 129.384 98.7427 129.384C99.3187 129.384 99.8414 129.245 100.311 128.968C100.801 128.691 101.217 128.296 101.559 127.784C101.921 127.272 102.199 126.664 102.391 125.96C102.583 125.256 102.679 124.477 102.679 123.624Z" fill="#0F50F6"/>
<path d="M424.92 23.28C424.92 24.3467 424.696 25.3067 424.248 26.16C423.821 27.0133 423.224 27.7493 422.456 28.368C421.709 28.9867 420.835 29.4667 419.832 29.808C418.829 30.128 417.763 30.288 416.632 30.288C415.501 30.288 414.435 30.1173 413.432 29.776C412.429 29.4133 411.555 28.912 410.808 28.272C410.061 27.632 409.475 26.8747 409.048 26C408.621 25.1253 408.408 24.1653 408.408 23.12C408.408 22.48 408.515 21.8933 408.728 21.36C408.941 20.8053 409.219 20.304 409.56 19.856C409.901 19.408 410.275 19.0133 410.68 18.672C411.107 18.3307 411.533 18.0533 411.96 17.84C411.171 17.456 410.499 16.88 409.944 16.112C409.389 15.344 409.112 14.5013 409.112 13.584C409.112 12.56 409.336 11.664 409.784 10.896C410.253 10.1067 410.851 9.44533 411.576 8.912C412.323 8.37867 413.133 7.97333 414.008 7.696C414.904 7.41867 415.789 7.28 416.664 7.28C417.517 7.28 418.392 7.41867 419.288 7.696C420.205 7.952 421.027 8.34667 421.752 8.88C422.477 9.41333 423.075 10.0747 423.544 10.864C424.013 11.632 424.248 12.528 424.248 13.552C424.248 14 424.173 14.448 424.024 14.896C423.875 15.3227 423.661 15.728 423.384 16.112C423.128 16.4747 422.819 16.8053 422.456 17.104C422.093 17.4027 421.709 17.648 421.304 17.84C421.773 18.0747 422.221 18.3733 422.648 18.736C423.075 19.0773 423.459 19.4827 423.8 19.952C424.141 20.4 424.408 20.9013 424.6 21.456C424.813 22.0107 424.92 22.6187 424.92 23.28ZM420.568 23.024C420.568 22.4907 420.451 22.0107 420.216 21.584C420.003 21.1573 419.704 20.8053 419.32 20.528C418.957 20.2293 418.541 20.0053 418.072 19.856C417.603 19.7067 417.123 19.632 416.632 19.632C416.12 19.632 415.629 19.7173 415.16 19.888C414.691 20.0373 414.275 20.2613 413.912 20.56C413.571 20.8587 413.293 21.2213 413.08 21.648C412.867 22.0533 412.76 22.512 412.76 23.024C412.76 23.536 412.867 24.0053 413.08 24.432C413.315 24.8373 413.613 25.1893 413.976 25.488C414.339 25.7867 414.755 26.0213 415.224 26.192C415.693 26.3413 416.173 26.416 416.664 26.416C417.176 26.416 417.667 26.3307 418.136 26.16C418.605 25.9893 419.021 25.7547 419.384 25.456C419.747 25.1573 420.035 24.8053 420.248 24.4C420.461 23.9733 420.568 23.5147 420.568 23.024ZM413.464 13.712C413.464 14.16 413.56 14.5547 413.752 14.896C413.944 15.216 414.189 15.4933 414.488 15.728C414.808 15.9413 415.149 16.112 415.512 16.24C415.896 16.3467 416.28 16.4 416.664 16.4C417.027 16.4 417.4 16.3467 417.784 16.24C418.168 16.112 418.509 15.9307 418.808 15.696C419.128 15.4613 419.384 15.184 419.576 14.864C419.768 14.5227 419.864 14.128 419.864 13.68C419.864 12.8907 419.544 12.2613 418.904 11.792C418.285 11.3227 417.528 11.088 416.632 11.088C415.757 11.088 415.011 11.3333 414.392 11.824C413.773 12.2933 413.464 12.9227 413.464 13.712ZM445.032 20.624C445.032 22.032 444.819 23.3333 444.392 24.528C443.987 25.7013 443.411 26.7253 442.665 27.6C441.939 28.4533 441.064 29.1253 440.04 29.616C439.038 30.0853 437.95 30.32 436.776 30.32C435.582 30.32 434.483 30.0853 433.48 29.616C432.478 29.1253 431.603 28.4533 430.856 27.6C430.131 26.7253 429.555 25.7013 429.128 24.528C428.723 23.3333 428.52 22.032 428.52 20.624C428.52 19.216 428.723 17.9253 429.128 16.752C429.555 15.5573 430.131 14.5333 430.856 13.68C431.603 12.8053 432.478 12.1227 433.48 11.632C434.483 11.1413 435.582 10.896 436.776 10.896C437.95 10.896 439.038 11.1413 440.04 11.632C441.064 12.1227 441.939 12.8053 442.665 13.68C443.411 14.5333 443.987 15.5573 444.392 16.752C444.819 17.9253 445.032 19.216 445.032 20.624ZM440.712 20.624C440.712 19.7707 440.616 18.992 440.425 18.288C440.233 17.5627 439.955 16.944 439.592 16.432C439.251 15.92 438.835 15.5253 438.344 15.248C437.875 14.9707 437.352 14.832 436.776 14.832C436.179 14.832 435.635 14.9707 435.144 15.248C434.675 15.5253 434.259 15.92 433.896 16.432C433.555 16.944 433.288 17.5627 433.096 18.288C432.904 18.992 432.808 19.7707 432.808 20.624C432.808 21.4773 432.904 22.256 433.096 22.96C433.288 23.664 433.555 24.272 433.896 24.784C434.259 25.296 434.675 25.6907 435.144 25.968C435.635 26.2453 436.179 26.384 436.776 26.384C437.352 26.384 437.875 26.2453 438.344 25.968C438.835 25.6907 439.251 25.296 439.592 24.784C439.955 24.272 440.233 23.664 440.425 22.96C440.616 22.256 440.712 21.4773 440.712 20.624ZM473.656 20.624C473.656 22.032 473.443 23.3333 473.016 24.528C472.611 25.7013 472.035 26.7253 471.288 27.6C470.563 28.4533 469.688 29.1253 468.664 29.616C467.662 30.0853 466.574 30.32 465.4 30.32C464.206 30.32 463.107 30.0853 462.104 29.616C461.102 29.1253 460.227 28.4533 459.48 27.6C458.755 26.7253 458.179 25.7013 457.752 24.528C457.347 23.3333 457.144 22.032 457.144 20.624C457.144 19.216 457.347 17.9253 457.752 16.752C458.179 15.5573 458.755 14.5333 459.48 13.68C460.227 12.8053 461.102 12.1227 462.104 11.632C463.107 11.1413 464.206 10.896 465.4 10.896C466.574 10.896 467.662 11.1413 468.664 11.632C469.688 12.1227 470.563 12.8053 471.288 13.68C472.035 14.5333 472.611 15.5573 473.016 16.752C473.443 17.9253 473.656 19.216 473.656 20.624ZM469.336 20.624C469.336 19.7707 469.24 18.992 469.048 18.288C468.856 17.5627 468.579 16.944 468.216 16.432C467.875 15.92 467.459 15.5253 466.968 15.248C466.499 14.9707 465.976 14.832 465.4 14.832C464.803 14.832 464.259 14.9707 463.768 15.248C463.299 15.5253 462.883 15.92 462.52 16.432C462.179 16.944 461.912 17.5627 461.72 18.288C461.528 18.992 461.432 19.7707 461.432 20.624C461.432 21.4773 461.528 22.256 461.72 22.96C461.912 23.664 462.179 24.272 462.52 24.784C462.883 25.296 463.299 25.6907 463.768 25.968C464.259 26.2453 464.803 26.384 465.4 26.384C465.976 26.384 466.499 26.2453 466.968 25.968C467.459 25.6907 467.875 25.296 468.216 24.784C468.579 24.272 468.856 23.664 469.048 22.96C469.24 22.256 469.336 21.4773 469.336 20.624ZM493.952 20.624C493.952 22.032 493.739 23.3333 493.312 24.528C492.907 25.7013 492.331 26.7253 491.584 27.6C490.859 28.4533 489.984 29.1253 488.96 29.616C487.958 30.0853 486.87 30.32 485.696 30.32C484.502 30.32 483.403 30.0853 482.4 29.616C481.398 29.1253 480.523 28.4533 479.776 27.6C479.051 26.7253 478.475 25.7013 478.048 24.528C477.643 23.3333 477.44 22.032 477.44 20.624C477.44 19.216 477.643 17.9253 478.048 16.752C478.475 15.5573 479.051 14.5333 479.776 13.68C480.523 12.8053 481.398 12.1227 482.4 11.632C483.403 11.1413 484.502 10.896 485.696 10.896C486.87 10.896 487.958 11.1413 488.96 11.632C489.984 12.1227 490.859 12.8053 491.584 13.68C492.331 14.5333 492.907 15.5573 493.312 16.752C493.739 17.9253 493.952 19.216 493.952 20.624ZM489.632 20.624C489.632 19.7707 489.536 18.992 489.344 18.288C489.152 17.5627 488.875 16.944 488.512 16.432C488.171 15.92 487.755 15.5253 487.264 15.248C486.795 14.9707 486.272 14.832 485.696 14.832C485.099 14.832 484.555 14.9707 484.064 15.248C483.595 15.5253 483.179 15.92 482.816 16.432C482.475 16.944 482.208 17.5627 482.016 18.288C481.824 18.992 481.728 19.7707 481.728 20.624C481.728 21.4773 481.824 22.256 482.016 22.96C482.208 23.664 482.475 24.272 482.816 24.784C483.179 25.296 483.595 25.6907 484.064 25.968C484.555 26.2453 485.099 26.384 485.696 26.384C486.272 26.384 486.795 26.2453 487.264 25.968C487.755 25.6907 488.171 25.296 488.512 24.784C488.875 24.272 489.152 23.664 489.344 22.96C489.536 22.256 489.632 21.4773 489.632 20.624ZM514.249 20.624C514.249 22.032 514.035 23.3333 513.609 24.528C513.203 25.7013 512.627 26.7253 511.881 27.6C511.155 28.4533 510.281 29.1253 509.257 29.616C508.254 30.0853 507.166 30.32 505.993 30.32C504.798 30.32 503.699 30.0853 502.697 29.616C501.694 29.1253 500.819 28.4533 500.073 27.6C499.347 26.7253 498.771 25.7013 498.345 24.528C497.939 23.3333 497.737 22.032 497.737 20.624C497.737 19.216 497.939 17.9253 498.345 16.752C498.771 15.5573 499.347 14.5333 500.073 13.68C500.819 12.8053 501.694 12.1227 502.697 11.632C503.699 11.1413 504.798 10.896 505.993 10.896C507.166 10.896 508.254 11.1413 509.257 11.632C510.281 12.1227 511.155 12.8053 511.881 13.68C512.627 14.5333 513.203 15.5573 513.609 16.752C514.035 17.9253 514.249 19.216 514.249 20.624ZM509.929 20.624C509.929 19.7707 509.833 18.992 509.641 18.288C509.449 17.5627 509.171 16.944 508.809 16.432C508.467 15.92 508.051 15.5253 507.561 15.248C507.091 14.9707 506.569 14.832 505.993 14.832C505.395 14.832 504.851 14.9707 504.361 15.248C503.891 15.5253 503.475 15.92 503.113 16.432C502.771 16.944 502.505 17.5627 502.313 18.288C502.121 18.992 502.025 19.7707 502.025 20.624C502.025 21.4773 502.121 22.256 502.313 22.96C502.505 23.664 502.771 24.272 503.113 24.784C503.475 25.296 503.891 25.6907 504.361 25.968C504.851 26.2453 505.395 26.384 505.993 26.384C506.569 26.384 507.091 26.2453 507.561 25.968C508.051 25.6907 508.467 25.296 508.809 24.784C509.171 24.272 509.449 23.664 509.641 22.96C509.833 22.256 509.929 21.4773 509.929 20.624Z" fill="#0F50F6"/>
<path d="M4.488 194.676C4.976 194.716 5.416 194.824 5.808 195C6.208 195.168 6.544 195.396 6.816 195.684C7.088 195.964 7.296 196.292 7.44 196.668C7.592 197.044 7.668 197.456 7.668 197.904C7.668 198.36 7.592 198.776 7.44 199.152C7.296 199.528 7.084 199.856 6.804 200.136C6.532 200.408 6.2 200.628 5.808 200.796C5.416 200.956 4.976 201.056 4.488 201.096V203.556H3.672V201.108C3.176 201.076 2.732 200.976 2.34 200.808C1.948 200.64 1.612 200.416 1.332 200.136C1.052 199.856 0.836 199.528 0.684 199.152C0.54 198.776 0.468 198.36 0.468 197.904C0.468 197.456 0.54 197.044 0.684 196.668C0.836 196.284 1.048 195.952 1.32 195.672C1.6 195.384 1.936 195.156 2.328 194.988C2.728 194.812 3.176 194.704 3.672 194.664V192.24H4.488V194.676ZM3.672 195.444C2.92 195.508 2.336 195.748 1.92 196.164C1.512 196.572 1.308 197.14 1.308 197.868C1.308 198.604 1.516 199.188 1.932 199.62C2.356 200.044 2.936 200.288 3.672 200.352V195.444ZM4.488 200.352C5.216 200.28 5.788 200.032 6.204 199.608C6.62 199.184 6.828 198.604 6.828 197.868C6.828 197.156 6.624 196.592 6.216 196.176C5.808 195.752 5.232 195.508 4.488 195.444V200.352ZM11.8528 201.12C11.3968 201.12 10.9768 201.036 10.5928 200.868C10.2168 200.692 9.88881 200.456 9.60881 200.16C9.32881 199.856 9.10881 199.508 8.94881 199.116C8.79681 198.724 8.72081 198.304 8.72081 197.856C8.72081 197.416 8.79681 197.004 8.94881 196.62C9.10881 196.228 9.32481 195.888 9.59681 195.6C9.87681 195.304 10.2088 195.072 10.5928 194.904C10.9768 194.728 11.3928 194.64 11.8408 194.64C12.2968 194.64 12.7128 194.728 13.0888 194.904C13.4728 195.072 13.8008 195.304 14.0728 195.6C14.3448 195.896 14.5568 196.236 14.7088 196.62C14.8608 197.004 14.9368 197.412 14.9368 197.844C14.9368 197.908 14.9368 197.972 14.9368 198.036C14.9368 198.1 14.9328 198.144 14.9248 198.168H9.57281C9.59681 198.504 9.67281 198.816 9.80081 199.104C9.93681 199.384 10.1088 199.628 10.3168 199.836C10.5248 200.044 10.7608 200.208 11.0248 200.328C11.2968 200.44 11.5848 200.496 11.8888 200.496C12.0888 200.496 12.2888 200.468 12.4888 200.412C12.6888 200.356 12.8728 200.28 13.0408 200.184C13.2088 200.088 13.3608 199.972 13.4968 199.836C13.6328 199.692 13.7368 199.536 13.8088 199.368L14.5168 199.56C14.4208 199.792 14.2848 200.004 14.1088 200.196C13.9328 200.38 13.7288 200.544 13.4968 200.688C13.2648 200.824 13.0088 200.928 12.7288 201C12.4488 201.08 12.1568 201.12 11.8528 201.12ZM14.1568 197.544C14.1328 197.208 14.0528 196.904 13.9168 196.632C13.7888 196.352 13.6208 196.112 13.4128 195.912C13.2128 195.712 12.9768 195.556 12.7048 195.444C12.4408 195.332 12.1568 195.276 11.8528 195.276C11.5488 195.276 11.2608 195.332 10.9888 195.444C10.7168 195.556 10.4768 195.712 10.2688 195.912C10.0688 196.112 9.90481 196.352 9.77681 196.632C9.65681 196.912 9.58481 197.216 9.56081 197.544H14.1568ZM19.4118 194.748C19.6358 194.748 19.8398 194.788 20.0238 194.868C20.2158 194.948 20.3798 195.06 20.5158 195.204C20.6598 195.34 20.7678 195.5 20.8398 195.684C20.9198 195.868 20.9598 196.068 20.9598 196.284C20.9598 196.428 20.9398 196.572 20.8998 196.716C20.8678 196.86 20.8158 197 20.7438 197.136C20.6718 197.264 20.5798 197.384 20.4678 197.496C20.3558 197.6 20.2238 197.684 20.0718 197.748C20.4238 197.844 20.6998 198.028 20.8998 198.3C21.0998 198.572 21.1998 198.9 21.1998 199.284C21.1998 199.54 21.1518 199.772 21.0558 199.98C20.9678 200.188 20.8398 200.368 20.6718 200.52C20.5118 200.672 20.3198 200.792 20.0958 200.88C19.8718 200.96 19.6278 201 19.3638 201H16.3518V194.748H19.4118ZM19.0878 197.508C19.4158 197.508 19.6758 197.404 19.8678 197.196C20.0598 196.988 20.1558 196.724 20.1558 196.404C20.1558 196.124 20.0758 195.88 19.9158 195.672C19.7558 195.464 19.5078 195.36 19.1718 195.36H17.1438V197.508H19.0878ZM19.2798 200.388C19.4478 200.388 19.5998 200.356 19.7358 200.292C19.8798 200.228 19.9998 200.144 20.0958 200.04C20.1918 199.928 20.2678 199.804 20.3238 199.668C20.3798 199.532 20.4078 199.388 20.4078 199.236C20.4078 198.948 20.3078 198.692 20.1078 198.468C19.9158 198.244 19.6478 198.132 19.3038 198.132H17.1438V200.388H19.2798ZM25.921 201.12C25.393 201.12 24.925 200.988 24.517 200.724C24.117 200.452 23.793 200.112 23.545 199.704V203.556H22.729V194.748H23.461V195.96C23.717 195.568 24.049 195.252 24.457 195.012C24.865 194.764 25.309 194.64 25.789 194.64C26.221 194.64 26.617 194.732 26.977 194.916C27.337 195.092 27.649 195.332 27.913 195.636C28.177 195.932 28.381 196.276 28.525 196.668C28.677 197.06 28.753 197.464 28.753 197.88C28.753 198.32 28.685 198.736 28.549 199.128C28.413 199.52 28.217 199.864 27.961 200.16C27.713 200.456 27.413 200.692 27.061 200.868C26.717 201.036 26.337 201.12 25.921 201.12ZM25.693 200.4C26.029 200.4 26.333 200.328 26.605 200.184C26.885 200.04 27.121 199.852 27.313 199.62C27.513 199.38 27.665 199.112 27.769 198.816C27.873 198.512 27.925 198.2 27.925 197.88C27.925 197.544 27.865 197.224 27.745 196.92C27.625 196.616 27.461 196.348 27.253 196.116C27.045 195.884 26.797 195.7 26.509 195.564C26.229 195.428 25.925 195.36 25.597 195.36C25.389 195.36 25.169 195.404 24.937 195.492C24.713 195.572 24.501 195.684 24.301 195.828C24.109 195.964 23.941 196.128 23.797 196.32C23.661 196.504 23.577 196.7 23.545 196.908V198.828C23.641 199.052 23.761 199.26 23.905 199.452C24.057 199.644 24.225 199.812 24.409 199.956C24.601 200.092 24.805 200.2 25.021 200.28C25.237 200.36 25.461 200.4 25.693 200.4ZM31.8387 201.12C31.5427 201.12 31.2667 201.072 31.0107 200.976C30.7627 200.872 30.5427 200.732 30.3507 200.556C30.1667 200.38 30.0227 200.176 29.9187 199.944C29.8147 199.704 29.7627 199.448 29.7627 199.176C29.7627 198.904 29.8267 198.652 29.9547 198.42C30.0827 198.188 30.2627 197.988 30.4947 197.82C30.7267 197.652 31.0027 197.524 31.3227 197.436C31.6427 197.34 31.9947 197.292 32.3787 197.292C32.6987 197.292 33.0227 197.32 33.3507 197.376C33.6787 197.432 33.9707 197.512 34.2267 197.616V197.052C34.2267 196.5 34.0707 196.064 33.7587 195.744C33.4467 195.416 33.0147 195.252 32.4627 195.252C32.1427 195.252 31.8147 195.316 31.4787 195.444C31.1427 195.572 30.8027 195.756 30.4587 195.996L30.1707 195.456C30.9787 194.912 31.7627 194.64 32.5227 194.64C33.3067 194.64 33.9227 194.86 34.3707 195.3C34.8187 195.74 35.0427 196.348 35.0427 197.124V199.944C35.0427 200.168 35.1427 200.28 35.3427 200.28V201C35.2067 201.024 35.1027 201.036 35.0307 201.036C34.8227 201.036 34.6587 200.984 34.5387 200.88C34.4267 200.776 34.3667 200.632 34.3587 200.448L34.3347 199.956C34.0467 200.332 33.6827 200.62 33.2427 200.82C32.8107 201.02 32.3427 201.12 31.8387 201.12ZM32.0307 200.496C32.4547 200.496 32.8427 200.416 33.1947 200.256C33.5547 200.096 33.8267 199.884 34.0107 199.62C34.0827 199.548 34.1347 199.472 34.1667 199.392C34.2067 199.304 34.2267 199.224 34.2267 199.152V198.132C33.9547 198.028 33.6707 197.948 33.3747 197.892C33.0867 197.836 32.7907 197.808 32.4867 197.808C31.9107 197.808 31.4427 197.928 31.0827 198.168C30.7227 198.408 30.5427 198.724 30.5427 199.116C30.5427 199.308 30.5787 199.488 30.6507 199.656C30.7307 199.824 30.8347 199.972 30.9627 200.1C31.0987 200.22 31.2587 200.316 31.4427 200.388C31.6267 200.46 31.8227 200.496 32.0307 200.496ZM36.1095 200.316C36.3335 200.3 36.5295 200.24 36.6975 200.136C36.8655 200.024 37.0095 199.828 37.1295 199.548C37.2575 199.26 37.3655 198.868 37.4535 198.372C37.5495 197.876 37.6415 197.232 37.7295 196.44L37.9095 194.748H41.5815V201H40.7775V195.396H38.6655L38.4975 196.788C38.3935 197.62 38.2775 198.308 38.1495 198.852C38.0215 199.388 37.8695 199.82 37.6935 200.148C37.5255 200.468 37.3215 200.696 37.0815 200.832C36.8415 200.96 36.5615 201.032 36.2415 201.048L36.1095 200.316ZM43.5265 194.748H44.3305V196.968H45.6865C45.9745 196.968 46.2465 197.012 46.5025 197.1C46.7585 197.188 46.9825 197.316 47.1745 197.484C47.3665 197.652 47.5185 197.864 47.6305 198.12C47.7425 198.368 47.7985 198.656 47.7985 198.984C47.7985 199.312 47.7425 199.604 47.6305 199.86C47.5185 200.108 47.3665 200.316 47.1745 200.484C46.9825 200.652 46.7585 200.78 46.5025 200.868C46.2465 200.956 45.9745 201 45.6865 201H43.5265V194.748ZM45.6865 200.304C46.1025 200.304 46.4225 200.188 46.6465 199.956C46.8785 199.716 46.9945 199.392 46.9945 198.984C46.9945 198.576 46.8785 198.256 46.6465 198.024C46.4145 197.784 46.0945 197.664 45.6865 197.664H44.3305V200.304H45.6865ZM51.9724 201C51.9724 200.728 51.9964 200.456 52.0444 200.184C52.0924 199.904 52.1844 199.628 52.3204 199.356C52.4644 199.084 52.6644 198.824 52.9204 198.576C53.1844 198.32 53.5324 198.08 53.9644 197.856C54.1964 197.736 54.4364 197.62 54.6844 197.508C54.9404 197.388 55.1724 197.256 55.3804 197.112C55.5964 196.968 55.7724 196.808 55.9084 196.632C56.0444 196.448 56.1124 196.236 56.1124 195.996C56.1124 195.844 56.0764 195.696 56.0044 195.552C55.9404 195.4 55.8404 195.268 55.7044 195.156C55.5764 195.036 55.4124 194.94 55.2124 194.868C55.0204 194.796 54.7924 194.76 54.5284 194.76C54.2644 194.76 54.0284 194.8 53.8204 194.88C53.6124 194.952 53.4284 195.04 53.2684 195.144C53.1164 195.248 52.9844 195.36 52.8724 195.48C52.7604 195.592 52.6764 195.684 52.6204 195.756L52.0804 195.168C52.1284 195.12 52.2204 195.032 52.3564 194.904C52.4924 194.776 52.6684 194.648 52.8844 194.52C53.1084 194.392 53.3684 194.28 53.6644 194.184C53.9604 194.08 54.2924 194.028 54.6604 194.028C55.0284 194.028 55.3564 194.08 55.6444 194.184C55.9324 194.28 56.1764 194.416 56.3764 194.592C56.5764 194.768 56.7284 194.972 56.8324 195.204C56.9364 195.428 56.9884 195.664 56.9884 195.912C56.9884 196.24 56.9164 196.524 56.7724 196.764C56.6284 197.004 56.4484 197.212 56.2324 197.388C56.0244 197.564 55.8004 197.716 55.5604 197.844C55.3204 197.964 55.1044 198.068 54.9124 198.156C54.6564 198.268 54.4044 198.396 54.1564 198.54C53.9164 198.676 53.7004 198.828 53.5084 198.996C53.3164 199.164 53.1564 199.352 53.0284 199.56C52.9084 199.768 52.8484 200 52.8484 200.256H57.1204V201H51.9724ZM64.5062 197.484C64.5062 198.012 64.4302 198.5 64.2782 198.948C64.1262 199.388 63.9142 199.772 63.6422 200.1C63.3782 200.42 63.0622 200.672 62.6942 200.856C62.3262 201.032 61.9262 201.12 61.4942 201.12C61.0622 201.12 60.6622 201.032 60.2942 200.856C59.9262 200.672 59.6062 200.42 59.3342 200.1C59.0702 199.772 58.8622 199.388 58.7102 198.948C58.5582 198.5 58.4822 198.012 58.4822 197.484C58.4822 196.956 58.5582 196.472 58.7102 196.032C58.8622 195.584 59.0702 195.2 59.3342 194.88C59.6062 194.552 59.9262 194.296 60.2942 194.112C60.6622 193.928 61.0622 193.836 61.4942 193.836C61.9262 193.836 62.3262 193.928 62.6942 194.112C63.0622 194.296 63.3782 194.552 63.6422 194.88C63.9142 195.2 64.1262 195.584 64.2782 196.032C64.4302 196.472 64.5062 196.956 64.5062 197.484ZM63.6782 197.484C63.6782 197.052 63.6222 196.66 63.5102 196.308C63.4062 195.956 63.2582 195.656 63.0662 195.408C62.8742 195.152 62.6422 194.956 62.3702 194.82C62.1062 194.676 61.8142 194.604 61.4942 194.604C61.1662 194.604 60.8662 194.676 60.5942 194.82C60.3302 194.956 60.1022 195.152 59.9102 195.408C59.7182 195.656 59.5662 195.956 59.4542 196.308C59.3502 196.66 59.2982 197.052 59.2982 197.484C59.2982 197.916 59.3502 198.308 59.4542 198.66C59.5662 199.012 59.7182 199.316 59.9102 199.572C60.1022 199.82 60.3302 200.012 60.5942 200.148C60.8662 200.284 61.1662 200.352 61.4942 200.352C61.8142 200.352 62.1062 200.284 62.3702 200.148C62.6422 200.012 62.8742 199.82 63.0662 199.572C63.2582 199.316 63.4062 199.012 63.5102 198.66C63.6222 198.308 63.6782 197.916 63.6782 197.484ZM70.1618 200.256V201H66.0938V200.256H67.7978V195.12C67.7338 195.216 67.6218 195.32 67.4618 195.432C67.3098 195.544 67.1378 195.648 66.9458 195.744C66.7618 195.84 66.5698 195.92 66.3698 195.984C66.1698 196.048 65.9938 196.08 65.8418 196.08V195.288C66.0258 195.288 66.2258 195.236 66.4418 195.132C66.6658 195.028 66.8738 194.908 67.0658 194.772C67.2658 194.636 67.4338 194.508 67.5698 194.388C67.7058 194.268 67.7818 194.188 67.7978 194.148H68.6378V200.256H70.1618ZM74.8147 202.524V200.388H70.8187V199.668L75.0787 194.148H75.6307V199.644H76.6867V200.388H75.6307V202.524H74.8147ZM71.6827 199.644H74.8987V195.432L71.6827 199.644Z" fill="#B2B8D1"/>
<path d="M175.528 201C175.528 200.728 175.552 200.456 175.6 200.184C175.648 199.904 175.74 199.628 175.876 199.356C176.02 199.084 176.22 198.824 176.476 198.576C176.74 198.32 177.088 198.08 177.52 197.856C177.752 197.736 177.992 197.62 178.24 197.508C178.496 197.388 178.728 197.256 178.936 197.112C179.152 196.968 179.328 196.808 179.464 196.632C179.6 196.448 179.668 196.236 179.668 195.996C179.668 195.844 179.632 195.696 179.56 195.552C179.496 195.4 179.396 195.268 179.26 195.156C179.132 195.036 178.968 194.94 178.768 194.868C178.576 194.796 178.348 194.76 178.084 194.76C177.82 194.76 177.584 194.8 177.376 194.88C177.168 194.952 176.984 195.04 176.824 195.144C176.672 195.248 176.54 195.36 176.428 195.48C176.316 195.592 176.232 195.684 176.176 195.756L175.636 195.168C175.684 195.12 175.776 195.032 175.912 194.904C176.048 194.776 176.224 194.648 176.44 194.52C176.664 194.392 176.924 194.28 177.22 194.184C177.516 194.08 177.848 194.028 178.216 194.028C178.584 194.028 178.912 194.08 179.2 194.184C179.488 194.28 179.732 194.416 179.932 194.592C180.132 194.768 180.284 194.972 180.388 195.204C180.492 195.428 180.544 195.664 180.544 195.912C180.544 196.24 180.472 196.524 180.328 196.764C180.184 197.004 180.004 197.212 179.788 197.388C179.58 197.564 179.356 197.716 179.116 197.844C178.876 197.964 178.66 198.068 178.468 198.156C178.212 198.268 177.96 198.396 177.712 198.54C177.472 198.676 177.256 198.828 177.064 198.996C176.872 199.164 176.712 199.352 176.584 199.56C176.464 199.768 176.404 200 176.404 200.256H180.676V201H175.528ZM188.062 197.484C188.062 198.012 187.986 198.5 187.834 198.948C187.682 199.388 187.47 199.772 187.198 200.1C186.934 200.42 186.618 200.672 186.25 200.856C185.882 201.032 185.482 201.12 185.05 201.12C184.618 201.12 184.218 201.032 183.85 200.856C183.482 200.672 183.162 200.42 182.89 200.1C182.626 199.772 182.418 199.388 182.266 198.948C182.114 198.5 182.038 198.012 182.038 197.484C182.038 196.956 182.114 196.472 182.266 196.032C182.418 195.584 182.626 195.2 182.89 194.88C183.162 194.552 183.482 194.296 183.85 194.112C184.218 193.928 184.618 193.836 185.05 193.836C185.482 193.836 185.882 193.928 186.25 194.112C186.618 194.296 186.934 194.552 187.198 194.88C187.47 195.2 187.682 195.584 187.834 196.032C187.986 196.472 188.062 196.956 188.062 197.484ZM187.234 197.484C187.234 197.052 187.178 196.66 187.066 196.308C186.962 195.956 186.814 195.656 186.622 195.408C186.43 195.152 186.198 194.956 185.926 194.82C185.662 194.676 185.37 194.604 185.05 194.604C184.722 194.604 184.422 194.676 184.15 194.82C183.886 194.956 183.658 195.152 183.466 195.408C183.274 195.656 183.122 195.956 183.01 196.308C182.906 196.66 182.854 197.052 182.854 197.484C182.854 197.916 182.906 198.308 183.01 198.66C183.122 199.012 183.274 199.316 183.466 199.572C183.658 199.82 183.886 200.012 184.15 200.148C184.422 200.284 184.722 200.352 185.05 200.352C185.37 200.352 185.662 200.284 185.926 200.148C186.198 200.012 186.43 199.82 186.622 199.572C186.814 199.316 186.962 199.012 187.066 198.66C187.178 198.308 187.234 197.916 187.234 197.484ZM193.717 200.256V201H189.649V200.256H191.353V195.12C191.289 195.216 191.177 195.32 191.017 195.432C190.865 195.544 190.693 195.648 190.501 195.744C190.317 195.84 190.125 195.92 189.925 195.984C189.725 196.048 189.549 196.08 189.397 196.08V195.288C189.581 195.288 189.781 195.236 189.997 195.132C190.221 195.028 190.429 194.908 190.621 194.772C190.821 194.636 190.989 194.508 191.125 194.388C191.261 194.268 191.337 194.188 191.353 194.148H192.193V200.256H193.717ZM197.422 197.256C197.814 197.256 198.178 197.324 198.514 197.46C198.85 197.588 199.142 197.772 199.39 198.012C199.646 198.252 199.846 198.54 199.99 198.876C200.134 199.204 200.206 199.568 200.206 199.968C200.206 200.392 200.126 200.776 199.966 201.12C199.814 201.472 199.602 201.768 199.33 202.008C199.066 202.256 198.754 202.448 198.394 202.584C198.034 202.72 197.65 202.788 197.242 202.788C196.938 202.788 196.646 202.748 196.366 202.668C196.094 202.596 195.842 202.488 195.61 202.344C195.378 202.2 195.166 202.028 194.974 201.828C194.79 201.628 194.638 201.404 194.518 201.156L195.058 200.748C195.282 201.14 195.586 201.456 195.97 201.696C196.362 201.936 196.79 202.056 197.254 202.056C197.55 202.056 197.826 202.004 198.082 201.9C198.338 201.804 198.562 201.664 198.754 201.48C198.946 201.296 199.094 201.076 199.198 200.82C199.31 200.564 199.366 200.284 199.366 199.98C199.366 199.684 199.314 199.416 199.21 199.176C199.106 198.928 198.962 198.716 198.778 198.54C198.594 198.364 198.378 198.228 198.13 198.132C197.882 198.036 197.614 197.988 197.326 197.988C196.95 197.988 196.594 198.072 196.258 198.24C195.93 198.4 195.662 198.636 195.454 198.948H194.698C194.706 198.9 194.726 198.792 194.758 198.624C194.79 198.456 194.83 198.256 194.878 198.024C194.926 197.792 194.978 197.536 195.034 197.256C195.09 196.968 195.146 196.68 195.202 196.392C195.338 195.72 195.486 194.972 195.646 194.148H199.762V194.904H196.258L195.67 197.964C195.878 197.74 196.13 197.568 196.426 197.448C196.73 197.32 197.062 197.256 197.422 197.256Z" fill="#B2B8D1"/>
<path d="M315.528 201C315.528 200.728 315.552 200.456 315.6 200.184C315.648 199.904 315.74 199.628 315.876 199.356C316.02 199.084 316.22 198.824 316.476 198.576C316.74 198.32 317.088 198.08 317.52 197.856C317.752 197.736 317.992 197.62 318.24 197.508C318.496 197.388 318.728 197.256 318.936 197.112C319.152 196.968 319.328 196.808 319.464 196.632C319.6 196.448 319.668 196.236 319.668 195.996C319.668 195.844 319.632 195.696 319.56 195.552C319.496 195.4 319.396 195.268 319.26 195.156C319.132 195.036 318.968 194.94 318.768 194.868C318.576 194.796 318.348 194.76 318.084 194.76C317.82 194.76 317.584 194.8 317.376 194.88C317.168 194.952 316.984 195.04 316.824 195.144C316.672 195.248 316.54 195.36 316.428 195.48C316.316 195.592 316.232 195.684 316.176 195.756L315.636 195.168C315.684 195.12 315.776 195.032 315.912 194.904C316.048 194.776 316.224 194.648 316.44 194.52C316.664 194.392 316.924 194.28 317.22 194.184C317.516 194.08 317.848 194.028 318.216 194.028C318.584 194.028 318.912 194.08 319.2 194.184C319.488 194.28 319.732 194.416 319.932 194.592C320.132 194.768 320.284 194.972 320.388 195.204C320.492 195.428 320.544 195.664 320.544 195.912C320.544 196.24 320.472 196.524 320.328 196.764C320.184 197.004 320.004 197.212 319.788 197.388C319.58 197.564 319.356 197.716 319.116 197.844C318.876 197.964 318.66 198.068 318.468 198.156C318.212 198.268 317.96 198.396 317.712 198.54C317.472 198.676 317.256 198.828 317.064 198.996C316.872 199.164 316.712 199.352 316.584 199.56C316.464 199.768 316.404 200 316.404 200.256H320.676V201H315.528ZM328.062 197.484C328.062 198.012 327.986 198.5 327.834 198.948C327.682 199.388 327.47 199.772 327.198 200.1C326.934 200.42 326.618 200.672 326.25 200.856C325.882 201.032 325.482 201.12 325.05 201.12C324.618 201.12 324.218 201.032 323.85 200.856C323.482 200.672 323.162 200.42 322.89 200.1C322.626 199.772 322.418 199.388 322.266 198.948C322.114 198.5 322.038 198.012 322.038 197.484C322.038 196.956 322.114 196.472 322.266 196.032C322.418 195.584 322.626 195.2 322.89 194.88C323.162 194.552 323.482 194.296 323.85 194.112C324.218 193.928 324.618 193.836 325.05 193.836C325.482 193.836 325.882 193.928 326.25 194.112C326.618 194.296 326.934 194.552 327.198 194.88C327.47 195.2 327.682 195.584 327.834 196.032C327.986 196.472 328.062 196.956 328.062 197.484ZM327.234 197.484C327.234 197.052 327.178 196.66 327.066 196.308C326.962 195.956 326.814 195.656 326.622 195.408C326.43 195.152 326.198 194.956 325.926 194.82C325.662 194.676 325.37 194.604 325.05 194.604C324.722 194.604 324.422 194.676 324.15 194.82C323.886 194.956 323.658 195.152 323.466 195.408C323.274 195.656 323.122 195.956 323.01 196.308C322.906 196.66 322.854 197.052 322.854 197.484C322.854 197.916 322.906 198.308 323.01 198.66C323.122 199.012 323.274 199.316 323.466 199.572C323.658 199.82 323.886 200.012 324.15 200.148C324.422 200.284 324.722 200.352 325.05 200.352C325.37 200.352 325.662 200.284 325.926 200.148C326.198 200.012 326.43 199.82 326.622 199.572C326.814 199.316 326.962 199.012 327.066 198.66C327.178 198.308 327.234 197.916 327.234 197.484ZM333.717 200.256V201H329.649V200.256H331.353V195.12C331.289 195.216 331.177 195.32 331.017 195.432C330.865 195.544 330.693 195.648 330.501 195.744C330.317 195.84 330.125 195.92 329.925 195.984C329.725 196.048 329.549 196.08 329.397 196.08V195.288C329.581 195.288 329.781 195.236 329.997 195.132C330.221 195.028 330.429 194.908 330.621 194.772C330.821 194.636 330.989 194.508 331.125 194.388C331.261 194.268 331.337 194.188 331.353 194.148H332.193V200.256H333.717ZM340.806 198.192C340.806 198.6 340.726 198.984 340.566 199.344C340.414 199.696 340.202 200.004 339.93 200.268C339.658 200.532 339.338 200.74 338.97 200.892C338.602 201.044 338.206 201.12 337.782 201.12C337.334 201.12 336.922 201.04 336.546 200.88C336.17 200.712 335.846 200.476 335.574 200.172C335.31 199.868 335.102 199.496 334.95 199.056C334.798 198.608 334.722 198.108 334.722 197.556C334.722 196.692 334.798 195.94 334.95 195.3C335.102 194.652 335.314 194.116 335.586 193.692C335.866 193.26 336.198 192.94 336.582 192.732C336.966 192.524 337.394 192.42 337.866 192.42C338.434 192.42 338.942 192.56 339.39 192.84C339.838 193.12 340.178 193.508 340.41 194.004L339.882 194.484C339.714 194.076 339.45 193.752 339.09 193.512C338.73 193.264 338.322 193.14 337.866 193.14C337.514 193.14 337.194 193.224 336.906 193.392C336.618 193.56 336.37 193.804 336.162 194.124C335.962 194.436 335.802 194.824 335.682 195.288C335.57 195.752 335.514 196.276 335.514 196.86C335.69 196.388 335.99 196.012 336.414 195.732C336.846 195.452 337.334 195.312 337.878 195.312C338.286 195.312 338.666 195.388 339.018 195.54C339.378 195.684 339.69 195.888 339.954 196.152C340.218 196.408 340.426 196.712 340.578 197.064C340.73 197.416 340.806 197.792 340.806 198.192ZM337.806 200.4C338.11 200.4 338.394 200.344 338.658 200.232C338.93 200.112 339.166 199.952 339.366 199.752C339.574 199.552 339.734 199.32 339.846 199.056C339.966 198.784 340.026 198.496 340.026 198.192C340.026 197.888 339.966 197.604 339.846 197.34C339.726 197.068 339.562 196.832 339.354 196.632C339.154 196.432 338.918 196.276 338.646 196.164C338.382 196.044 338.098 195.984 337.794 195.984C337.49 195.984 337.202 196.044 336.93 196.164C336.666 196.276 336.43 196.432 336.222 196.632C336.022 196.832 335.862 197.068 335.742 197.34C335.63 197.604 335.574 197.888 335.574 198.192C335.574 198.496 335.634 198.78 335.754 199.044C335.874 199.308 336.034 199.544 336.234 199.752C336.442 199.952 336.678 200.112 336.942 200.232C337.214 200.344 337.502 200.4 337.806 200.4Z" fill="#B2B8D1"/>
<path d="M439.734 194.676C440.222 194.716 440.662 194.824 441.054 195C441.454 195.168 441.79 195.396 442.062 195.684C442.334 195.964 442.542 196.292 442.686 196.668C442.838 197.044 442.914 197.456 442.914 197.904C442.914 198.36 442.838 198.776 442.686 199.152C442.542 199.528 442.33 199.856 442.05 200.136C441.778 200.408 441.446 200.628 441.054 200.796C440.662 200.956 440.222 201.056 439.734 201.096V203.556H438.918V201.108C438.422 201.076 437.978 200.976 437.586 200.808C437.194 200.64 436.858 200.416 436.578 200.136C436.298 199.856 436.082 199.528 435.93 199.152C435.786 198.776 435.714 198.36 435.714 197.904C435.714 197.456 435.786 197.044 435.93 196.668C436.082 196.284 436.294 195.952 436.566 195.672C436.846 195.384 437.182 195.156 437.574 194.988C437.974 194.812 438.422 194.704 438.918 194.664V192.24H439.734V194.676ZM438.918 195.444C438.166 195.508 437.582 195.748 437.166 196.164C436.758 196.572 436.554 197.14 436.554 197.868C436.554 198.604 436.762 199.188 437.178 199.62C437.602 200.044 438.182 200.288 438.918 200.352V195.444ZM439.734 200.352C440.462 200.28 441.034 200.032 441.45 199.608C441.866 199.184 442.074 198.604 442.074 197.868C442.074 197.156 441.87 196.592 441.462 196.176C441.054 195.752 440.478 195.508 439.734 195.444V200.352ZM447.099 201.12C446.643 201.12 446.223 201.036 445.839 200.868C445.463 200.692 445.135 200.456 444.855 200.16C444.575 199.856 444.355 199.508 444.195 199.116C444.043 198.724 443.967 198.304 443.967 197.856C443.967 197.416 444.043 197.004 444.195 196.62C444.355 196.228 444.571 195.888 444.843 195.6C445.123 195.304 445.455 195.072 445.839 194.904C446.223 194.728 446.639 194.64 447.087 194.64C447.543 194.64 447.959 194.728 448.335 194.904C448.719 195.072 449.047 195.304 449.319 195.6C449.591 195.896 449.803 196.236 449.955 196.62C450.107 197.004 450.183 197.412 450.183 197.844C450.183 197.908 450.183 197.972 450.183 198.036C450.183 198.1 450.179 198.144 450.171 198.168H444.819C444.843 198.504 444.919 198.816 445.047 199.104C445.183 199.384 445.355 199.628 445.563 199.836C445.771 200.044 446.007 200.208 446.271 200.328C446.543 200.44 446.831 200.496 447.135 200.496C447.335 200.496 447.535 200.468 447.735 200.412C447.935 200.356 448.119 200.28 448.287 200.184C448.455 200.088 448.607 199.972 448.743 199.836C448.879 199.692 448.983 199.536 449.055 199.368L449.763 199.56C449.667 199.792 449.531 200.004 449.355 200.196C449.179 200.38 448.975 200.544 448.743 200.688C448.511 200.824 448.255 200.928 447.975 201C447.695 201.08 447.403 201.12 447.099 201.12ZM449.403 197.544C449.379 197.208 449.299 196.904 449.163 196.632C449.035 196.352 448.867 196.112 448.659 195.912C448.459 195.712 448.223 195.556 447.951 195.444C447.687 195.332 447.403 195.276 447.099 195.276C446.795 195.276 446.507 195.332 446.235 195.444C445.963 195.556 445.723 195.712 445.515 195.912C445.315 196.112 445.151 196.352 445.023 196.632C444.903 196.912 444.831 197.216 444.807 197.544H449.403ZM454.658 194.748C454.882 194.748 455.086 194.788 455.27 194.868C455.462 194.948 455.626 195.06 455.762 195.204C455.906 195.34 456.014 195.5 456.086 195.684C456.166 195.868 456.206 196.068 456.206 196.284C456.206 196.428 456.186 196.572 456.146 196.716C456.114 196.86 456.062 197 455.99 197.136C455.918 197.264 455.826 197.384 455.714 197.496C455.602 197.6 455.47 197.684 455.318 197.748C455.67 197.844 455.946 198.028 456.146 198.3C456.346 198.572 456.446 198.9 456.446 199.284C456.446 199.54 456.398 199.772 456.302 199.98C456.214 200.188 456.086 200.368 455.918 200.52C455.758 200.672 455.566 200.792 455.342 200.88C455.118 200.96 454.874 201 454.61 201H451.598V194.748H454.658ZM454.334 197.508C454.662 197.508 454.922 197.404 455.114 197.196C455.306 196.988 455.402 196.724 455.402 196.404C455.402 196.124 455.322 195.88 455.162 195.672C455.002 195.464 454.754 195.36 454.418 195.36H452.39V197.508H454.334ZM454.526 200.388C454.694 200.388 454.846 200.356 454.982 200.292C455.126 200.228 455.246 200.144 455.342 200.04C455.438 199.928 455.514 199.804 455.57 199.668C455.626 199.532 455.654 199.388 455.654 199.236C455.654 198.948 455.554 198.692 455.354 198.468C455.162 198.244 454.894 198.132 454.55 198.132H452.39V200.388H454.526ZM461.167 201.12C460.639 201.12 460.171 200.988 459.763 200.724C459.363 200.452 459.039 200.112 458.791 199.704V203.556H457.975V194.748H458.707V195.96C458.963 195.568 459.295 195.252 459.703 195.012C460.111 194.764 460.555 194.64 461.035 194.64C461.467 194.64 461.863 194.732 462.223 194.916C462.583 195.092 462.895 195.332 463.159 195.636C463.423 195.932 463.627 196.276 463.771 196.668C463.923 197.06 463.999 197.464 463.999 197.88C463.999 198.32 463.931 198.736 463.795 199.128C463.659 199.52 463.463 199.864 463.207 200.16C462.959 200.456 462.659 200.692 462.307 200.868C461.963 201.036 461.583 201.12 461.167 201.12ZM460.939 200.4C461.275 200.4 461.579 200.328 461.851 200.184C462.131 200.04 462.367 199.852 462.559 199.62C462.759 199.38 462.911 199.112 463.015 198.816C463.119 198.512 463.171 198.2 463.171 197.88C463.171 197.544 463.111 197.224 462.991 196.92C462.871 196.616 462.707 196.348 462.499 196.116C462.291 195.884 462.043 195.7 461.755 195.564C461.475 195.428 461.171 195.36 460.843 195.36C460.635 195.36 460.415 195.404 460.183 195.492C459.959 195.572 459.747 195.684 459.547 195.828C459.355 195.964 459.187 196.128 459.043 196.32C458.907 196.504 458.823 196.7 458.791 196.908V198.828C458.887 199.052 459.007 199.26 459.151 199.452C459.303 199.644 459.471 199.812 459.655 199.956C459.847 200.092 460.051 200.2 460.267 200.28C460.483 200.36 460.707 200.4 460.939 200.4ZM467.085 201.12C466.789 201.12 466.513 201.072 466.257 200.976C466.009 200.872 465.789 200.732 465.597 200.556C465.413 200.38 465.269 200.176 465.165 199.944C465.061 199.704 465.009 199.448 465.009 199.176C465.009 198.904 465.073 198.652 465.201 198.42C465.329 198.188 465.509 197.988 465.741 197.82C465.973 197.652 466.249 197.524 466.569 197.436C466.889 197.34 467.241 197.292 467.625 197.292C467.945 197.292 468.269 197.32 468.597 197.376C468.925 197.432 469.217 197.512 469.473 197.616V197.052C469.473 196.5 469.317 196.064 469.005 195.744C468.693 195.416 468.261 195.252 467.709 195.252C467.389 195.252 467.061 195.316 466.725 195.444C466.389 195.572 466.049 195.756 465.705 195.996L465.417 195.456C466.225 194.912 467.009 194.64 467.769 194.64C468.553 194.64 469.169 194.86 469.617 195.3C470.065 195.74 470.289 196.348 470.289 197.124V199.944C470.289 200.168 470.389 200.28 470.589 200.28V201C470.453 201.024 470.349 201.036 470.277 201.036C470.069 201.036 469.905 200.984 469.785 200.88C469.673 200.776 469.613 200.632 469.605 200.448L469.581 199.956C469.293 200.332 468.929 200.62 468.489 200.82C468.057 201.02 467.589 201.12 467.085 201.12ZM467.277 200.496C467.701 200.496 468.089 200.416 468.441 200.256C468.801 200.096 469.073 199.884 469.257 199.62C469.329 199.548 469.381 199.472 469.413 199.392C469.453 199.304 469.473 199.224 469.473 199.152V198.132C469.201 198.028 468.917 197.948 468.621 197.892C468.333 197.836 468.037 197.808 467.733 197.808C467.157 197.808 466.689 197.928 466.329 198.168C465.969 198.408 465.789 198.724 465.789 199.116C465.789 199.308 465.825 199.488 465.897 199.656C465.977 199.824 466.081 199.972 466.209 200.1C466.345 200.22 466.505 200.316 466.689 200.388C466.873 200.46 467.069 200.496 467.277 200.496ZM471.356 200.316C471.58 200.3 471.776 200.24 471.944 200.136C472.112 200.024 472.256 199.828 472.376 199.548C472.504 199.26 472.612 198.868 472.7 198.372C472.796 197.876 472.888 197.232 472.976 196.44L473.156 194.748H476.828V201H476.024V195.396H473.912L473.744 196.788C473.64 197.62 473.524 198.308 473.396 198.852C473.268 199.388 473.116 199.82 472.94 200.148C472.772 200.468 472.568 200.696 472.328 200.832C472.088 200.96 471.808 201.032 471.488 201.048L471.356 200.316ZM478.773 194.748H479.577V196.968H480.933C481.221 196.968 481.493 197.012 481.749 197.1C482.005 197.188 482.229 197.316 482.421 197.484C482.613 197.652 482.765 197.864 482.877 198.12C482.989 198.368 483.045 198.656 483.045 198.984C483.045 199.312 482.989 199.604 482.877 199.86C482.765 200.108 482.613 200.316 482.421 200.484C482.229 200.652 482.005 200.78 481.749 200.868C481.493 200.956 481.221 201 480.933 201H478.773V194.748ZM480.933 200.304C481.349 200.304 481.669 200.188 481.893 199.956C482.125 199.716 482.241 199.392 482.241 198.984C482.241 198.576 482.125 198.256 481.893 198.024C481.661 197.784 481.341 197.664 480.933 197.664H479.577V200.304H480.933ZM487.219 201C487.219 200.728 487.243 200.456 487.291 200.184C487.339 199.904 487.431 199.628 487.567 199.356C487.711 199.084 487.911 198.824 488.167 198.576C488.431 198.32 488.779 198.08 489.211 197.856C489.443 197.736 489.683 197.62 489.931 197.508C490.187 197.388 490.419 197.256 490.627 197.112C490.843 196.968 491.019 196.808 491.155 196.632C491.291 196.448 491.359 196.236 491.359 195.996C491.359 195.844 491.323 195.696 491.251 195.552C491.187 195.4 491.087 195.268 490.951 195.156C490.823 195.036 490.659 194.94 490.459 194.868C490.267 194.796 490.039 194.76 489.775 194.76C489.511 194.76 489.275 194.8 489.067 194.88C488.859 194.952 488.675 195.04 488.515 195.144C488.363 195.248 488.231 195.36 488.119 195.48C488.007 195.592 487.923 195.684 487.867 195.756L487.327 195.168C487.375 195.12 487.467 195.032 487.603 194.904C487.739 194.776 487.915 194.648 488.131 194.52C488.355 194.392 488.615 194.28 488.911 194.184C489.207 194.08 489.539 194.028 489.907 194.028C490.275 194.028 490.603 194.08 490.891 194.184C491.179 194.28 491.423 194.416 491.623 194.592C491.823 194.768 491.975 194.972 492.079 195.204C492.183 195.428 492.235 195.664 492.235 195.912C492.235 196.24 492.163 196.524 492.019 196.764C491.875 197.004 491.695 197.212 491.479 197.388C491.271 197.564 491.047 197.716 490.807 197.844C490.567 197.964 490.351 198.068 490.159 198.156C489.903 198.268 489.651 198.396 489.403 198.54C489.163 198.676 488.947 198.828 488.755 198.996C488.563 199.164 488.403 199.352 488.275 199.56C488.155 199.768 488.095 200 488.095 200.256H492.367V201H487.219ZM499.753 197.484C499.753 198.012 499.677 198.5 499.525 198.948C499.373 199.388 499.161 199.772 498.889 200.1C498.625 200.42 498.309 200.672 497.941 200.856C497.573 201.032 497.173 201.12 496.741 201.12C496.309 201.12 495.909 201.032 495.541 200.856C495.173 200.672 494.853 200.42 494.581 200.1C494.317 199.772 494.109 199.388 493.957 198.948C493.805 198.5 493.729 198.012 493.729 197.484C493.729 196.956 493.805 196.472 493.957 196.032C494.109 195.584 494.317 195.2 494.581 194.88C494.853 194.552 495.173 194.296 495.541 194.112C495.909 193.928 496.309 193.836 496.741 193.836C497.173 193.836 497.573 193.928 497.941 194.112C498.309 194.296 498.625 194.552 498.889 194.88C499.161 195.2 499.373 195.584 499.525 196.032C499.677 196.472 499.753 196.956 499.753 197.484ZM498.925 197.484C498.925 197.052 498.869 196.66 498.757 196.308C498.653 195.956 498.505 195.656 498.313 195.408C498.121 195.152 497.889 194.956 497.617 194.82C497.353 194.676 497.061 194.604 496.741 194.604C496.413 194.604 496.113 194.676 495.841 194.82C495.577 194.956 495.349 195.152 495.157 195.408C494.965 195.656 494.813 195.956 494.701 196.308C494.597 196.66 494.545 197.052 494.545 197.484C494.545 197.916 494.597 198.308 494.701 198.66C494.813 199.012 494.965 199.316 495.157 199.572C495.349 199.82 495.577 200.012 495.841 200.148C496.113 200.284 496.413 200.352 496.741 200.352C497.061 200.352 497.353 200.284 497.617 200.148C497.889 200.012 498.121 199.82 498.313 199.572C498.505 199.316 498.653 199.012 498.757 198.66C498.869 198.308 498.925 197.916 498.925 197.484ZM505.408 200.256V201H501.34V200.256H503.044V195.12C502.98 195.216 502.868 195.32 502.708 195.432C502.556 195.544 502.384 195.648 502.192 195.744C502.008 195.84 501.816 195.92 501.616 195.984C501.416 196.048 501.24 196.08 501.088 196.08V195.288C501.272 195.288 501.472 195.236 501.688 195.132C501.912 195.028 502.12 194.908 502.312 194.772C502.512 194.636 502.68 194.508 502.816 194.388C502.952 194.268 503.028 194.188 503.044 194.148H503.884V200.256H505.408ZM510.582 194.76H505.986V194.004H511.878L507.57 202.524H506.634L510.582 194.76Z" fill="#B2B8D1"/>
<path d="M2 180L512 180" stroke="#D8DBE9"/>
<path d="M1 167H70.5L122 151.5L146.5 158.5C167 153.333 209.1 143.2 213.5 144C217.9 144.8 239.333 149.333 249.5 151.5H263L278 144H310H326.5L412 106.5H435L457 97H478L510.5 56" stroke="#0F50F6" stroke-width="2"/>
</svg>
