<svg width="164" height="164" viewBox="0 0 164 164" fill="none" xmlns="http://www.w3.org/2000/svg">
<path d="M77.4461 44.4294C89.3905 34.7151 107.372 41.5739 109.812 56.7752L116.22 96.6821C118.66 111.883 103.73 124.026 89.3447 118.539L51.5808 104.135C37.1957 98.6476 34.1449 79.646 46.0893 69.9317L77.4461 44.4294Z" fill="#F0F3FC"/>
<path d="M60.4601 77.3092L57.6468 77.3008C57.5755 77.3008 57.5176 77.2427 57.5176 77.1712V63.1602C57.5176 62.8275 57.3296 62.5233 57.032 62.3746L53.8425 60.7798L57.032 59.185C57.3295 59.0363 57.5176 58.7322 57.5176 58.3995V54.8861C57.5176 54.8148 57.5755 54.7568 57.6468 54.7568H96.4986C96.57 54.7568 96.6279 54.8149 96.6279 54.8861V74.6742C96.6279 75.1592 97.0211 75.5525 97.5063 75.5525C97.9915 75.5525 98.3846 75.1592 98.3846 74.6742V54.886C98.3846 53.846 97.5385 53 96.4986 53H57.6468C56.6069 53 55.7609 53.8461 55.7609 54.886V57.8565L51.4856 59.9942C51.1881 60.1429 51 60.447 51 60.7798C51 61.1125 51.1879 61.4166 51.4856 61.5653L55.7609 63.703V77.1712C55.7609 78.2113 56.607 79.0574 57.6443 79.0574L60.4548 79.0659C60.9413 79.0659 61.3343 78.6744 61.3358 78.1901C61.3373 77.705 60.9451 77.3106 60.4601 77.3092Z" fill="#5FEADA"/>
<path d="M105.077 81.8043C105.077 79.3256 103.061 77.3092 100.582 77.3092L89.5861 77.3093C91.5258 73.7427 92.5816 69.3134 92.5816 64.6544C92.5816 62.1757 90.565 60.1593 88.0865 60.1593C85.6079 60.1593 83.5914 62.1757 83.5914 64.6544C83.5914 71.6323 77.9145 77.3092 70.9366 77.3092H63.9705C63.4853 77.3092 63.0922 77.7025 63.0922 78.1875V107.122C63.0922 107.607 63.4853 108 63.9705 108H70.9366C71.4218 108 71.8149 107.607 71.8149 107.122V79.0383C79.3539 78.5828 85.348 72.3059 85.348 64.6544C85.348 63.1444 86.5764 61.916 88.0865 61.916C89.5965 61.916 90.8249 63.1444 90.8249 64.6544C90.8249 69.5881 89.575 74.2241 87.3055 77.7083C87.1296 77.9784 87.1156 78.323 87.2692 78.6063C87.4227 78.8896 87.7191 79.0661 88.0414 79.0661L100.582 79.0659C102.092 79.0659 103.321 80.2944 103.321 81.8043C103.321 83.3142 102.092 84.5427 100.582 84.5427H96.1379C95.6527 84.5427 95.2596 84.936 95.2596 85.4211C95.2596 85.9062 95.6527 86.2994 96.1379 86.2994H99.1007C100.611 86.2994 101.839 87.5278 101.839 89.0378C101.839 90.5479 100.611 91.7763 99.1007 91.7763H96.1379C95.6527 91.7763 95.2596 92.1695 95.2596 92.6546C95.2596 93.1397 95.6527 93.533 96.1379 93.533H97.6193C99.1293 93.533 100.358 94.7613 100.358 96.2714C100.358 97.7814 99.1293 99.0098 97.6193 99.0098H96.1379C95.6527 99.0098 95.2596 99.4031 95.2596 99.8882C95.2596 100.373 95.6527 100.766 96.1379 100.766C97.648 100.766 98.8764 101.995 98.8764 103.505C98.8764 105.015 97.648 106.243 96.1379 106.243H74.4502C73.965 106.243 73.5718 106.637 73.5718 107.122C73.5718 107.607 73.965 108 74.4502 108H96.138C98.6166 108 100.633 105.984 100.633 103.505C100.633 102.304 100.159 101.211 99.389 100.404C100.99 99.7152 102.115 98.1221 102.115 96.2714C102.115 95.07 101.641 93.9773 100.87 93.17C102.472 92.4816 103.596 90.8886 103.596 89.038C103.596 87.8366 103.122 86.7439 102.352 85.9366C103.953 85.248 105.077 83.6549 105.077 81.8043ZM70.0585 106.243H64.8491V79.0659H70.0585V106.243Z" fill="#2656F3"/>
<path d="M93.5034 103.608V81.701C93.5034 81.2159 93.1103 80.8226 92.6251 80.8226C92.1399 80.8226 91.7467 81.2159 91.7467 81.701V103.608C91.7467 104.093 92.1399 104.487 92.6251 104.487C93.1103 104.487 93.5034 104.093 93.5034 103.608Z" fill="#2656F3"/>
</svg>
