<svg width="164" height="164" viewBox="0 0 164 164" fill="none" xmlns="http://www.w3.org/2000/svg">
<path d="M77.4461 44.4294C89.3905 34.7151 107.372 41.5739 109.812 56.7752L116.22 96.6821C118.66 111.883 103.73 124.026 89.3447 118.539L51.5807 104.135C37.1957 98.6476 34.1449 79.646 46.0893 69.9317L77.4461 44.4294Z" fill="#F0F3FC"/>
<path d="M82.8809 96.5409H77.1362C76.6075 96.5409 76.1788 96.9696 76.1788 97.4983C76.1788 98.0271 76.6075 98.4558 77.1362 98.4558H82.8809C83.4097 98.4558 83.8384 98.0271 83.8384 97.4983C83.8384 96.9696 83.4097 96.5409 82.8809 96.5409Z" fill="#2656F3"/>
<path d="M109.995 101.232C109.991 101.193 109.985 101.156 109.977 101.119C109.975 101.111 109.972 101.102 109.97 101.094C109.963 101.065 109.954 101.036 109.944 101.008C109.941 100.999 109.938 100.99 109.934 100.981C109.921 100.948 109.907 100.916 109.891 100.885C109.89 100.883 109.889 100.881 109.888 100.879C109.883 100.87 104.574 90.8767 104.574 90.8767V64.7991C104.574 64.2703 104.146 63.8416 103.617 63.8416C103.088 63.8416 102.659 64.2703 102.659 64.7991V90.1579H57.3403V63.2126C57.3403 61.6288 58.6288 60.3403 60.2126 60.3403H98.2008C98.7296 60.3403 99.1583 59.9116 99.1583 59.3829C99.1583 58.8541 98.7296 58.4254 98.2008 58.4254H60.2128C57.573 58.4254 55.4255 60.5729 55.4255 63.2126V90.8767L50.1168 100.87C50.1108 100.881 50.11 100.883 50.109 100.885C50.0928 100.916 50.0785 100.949 50.0657 100.982C50.0623 100.99 50.0592 100.999 50.0562 101.008C50.0461 101.036 50.0375 101.065 50.0301 101.094C50.028 101.103 50.0255 101.111 50.0237 101.119C50.0156 101.156 50.0089 101.193 50.0051 101.232C50.0017 101.264 50 101.296 50 101.328V103.243C50 105.883 52.1475 108.03 54.7872 108.03H105.213C107.853 108.03 110 105.883 110 103.243V101.328C110 101.296 109.998 101.264 109.995 101.232ZM56.9585 92.0728H103.041L107.45 100.371H52.5503L56.9585 92.0728ZM105.213 106.115H54.7872C53.2034 106.115 51.9149 104.827 51.9149 103.243V102.286H108.085V103.243C108.085 104.827 106.797 106.115 105.213 106.115Z" fill="#2656F3"/>
<path d="M103.936 54.9149H106.731L83.8797 77.7662L76.8059 70.6925C76.432 70.3186 75.8257 70.3186 75.452 70.6925L59.5357 86.6086C59.1618 86.9825 59.1618 87.5887 59.5357 87.9625C59.7226 88.1494 59.9677 88.243 60.2127 88.243C60.4577 88.243 60.7028 88.1495 60.8897 87.9625L76.1288 72.7234L83.2026 79.7971C83.5765 80.1711 84.1827 80.1711 84.5565 79.7971L108.085 56.2689V59.0638C108.085 59.5926 108.514 60.0213 109.043 60.0213C109.571 60.0213 110 59.5926 110 59.0638V53.9574C110 53.4287 109.571 53 109.043 53H103.936C103.407 53 102.979 53.4287 102.979 53.9574C102.979 54.4862 103.407 54.9149 103.936 54.9149Z" fill="#5FEADA"/>
</svg>
