<svg width="164" height="164" viewBox="0 0 164 164" fill="none" xmlns="http://www.w3.org/2000/svg">
<path d="M77.446 44.4294C89.3905 34.7151 107.372 41.5739 109.812 56.7752L116.22 96.6821C118.66 111.883 103.73 124.026 89.3447 118.539L51.5807 104.135C37.1956 98.6476 34.1448 79.646 46.0893 69.9317L77.446 44.4294Z" fill="#F0F3FC"/>
<path d="M104.894 58.1489H83.8298C83.3009 58.1489 82.8723 58.5775 82.8723 59.1064C82.8723 59.6353 83.3009 60.0638 83.8298 60.0638H104.894C106.653 60.0638 108.085 61.4955 108.085 63.2553V64.3797C107.21 63.6771 106.1 63.2553 104.894 63.2553H80.9574V59.1064C80.9574 56.2907 78.6667 54 75.851 54H55.1064C52.2907 54 50 56.2907 50 59.1064V104.611C50 105.14 50.4285 105.568 50.9574 105.568H109.043C109.571 105.568 110 105.14 110 104.611V63.2553C110 60.4398 107.709 58.1489 104.894 58.1489ZM108.085 103.653H51.9149V59.1064C51.9149 57.3466 53.3466 55.9149 55.1064 55.9149H75.851C77.6108 55.9149 79.0425 57.3466 79.0425 59.1064V64.2128C79.0425 64.7417 79.4711 65.1702 80 65.1702H104.894C106.653 65.1702 108.085 66.6019 108.085 68.3617V103.653Z" fill="#2656F3"/>
<path d="M93.0491 83.5966C95.6901 83.5966 97.8387 81.4479 97.8387 78.8069C97.8387 76.1659 95.6901 74.0174 93.0491 74.0174C90.408 74.0174 88.2595 76.1659 88.2595 78.8069C88.2595 81.4479 90.408 83.5966 93.0491 83.5966ZM93.0491 75.9324C94.6342 75.9324 95.9238 77.222 95.9238 78.8071C95.9238 80.3922 94.6342 81.6818 93.0491 81.6818C91.464 81.6818 90.1744 80.3922 90.1744 78.8071C90.1744 77.222 91.464 75.9324 93.0491 75.9324Z" fill="#2656F3"/>
<path d="M93.049 85.5115C91.7493 85.5115 90.4605 85.8342 89.3216 86.445C88.8556 86.6949 88.6804 87.2752 88.9303 87.7412C89.1802 88.207 89.7602 88.3828 90.2265 88.1325C91.088 87.6706 92.0641 87.4264 93.049 87.4264C96.0251 87.4264 98.5011 89.6088 98.9609 92.457H93.049C92.5201 92.457 92.0916 92.8856 92.0916 93.4145C92.0916 93.9434 92.5201 94.3719 93.049 94.3719H99.9947C100.524 94.3719 100.952 93.9434 100.952 93.4145C100.952 89.0568 97.4068 85.5115 93.049 85.5115Z" fill="#2656F3"/>
<path d="M67.0358 92.457H61.039C61.4988 89.6087 63.9748 87.4264 66.9509 87.4264C67.9358 87.4264 68.9116 87.6705 69.7729 88.1322C70.239 88.3825 70.8195 88.207 71.0691 87.7409C71.319 87.275 71.1438 86.6946 70.6778 86.4448C69.5392 85.8342 68.2503 85.5115 66.9509 85.5115C62.593 85.5115 59.0478 89.0567 59.0478 93.4145C59.0478 93.9434 59.4763 94.3719 60.0052 94.3719H67.0359C67.5648 94.3719 67.9934 93.9434 67.9934 93.4145C67.9934 92.8856 67.5647 92.457 67.0358 92.457Z" fill="#2656F3"/>
<path d="M66.9508 83.5966C69.5918 83.5966 71.7403 81.4479 71.7403 78.8069C71.7403 76.1659 69.5918 74.0174 66.9508 74.0174C64.3098 74.0174 62.1611 76.1659 62.1611 78.8069C62.1611 81.4479 64.3099 83.5966 66.9508 83.5966ZM66.9508 75.9324C68.5358 75.9324 69.8254 77.222 69.8254 78.8071C69.8254 80.3922 68.5358 81.6818 66.9508 81.6818C65.3656 81.6818 64.076 80.3922 64.076 78.8071C64.0761 77.222 65.3656 75.9324 66.9508 75.9324Z" fill="#2656F3"/>
<path d="M80.0001 83.9427C83.4004 83.9427 86.1668 81.1763 86.1668 77.776C86.1668 74.3756 83.4004 71.6093 80.0001 71.6093C76.5997 71.6093 73.8333 74.3756 73.8333 77.776C73.8333 81.1763 76.5997 83.9427 80.0001 83.9427ZM80.0001 73.5243C82.3445 73.5243 84.2519 75.4315 84.2519 77.7761C84.2519 80.1207 82.3446 82.0279 80.0001 82.0279C77.6555 82.0279 75.7482 80.1207 75.7482 77.7761C75.7482 75.4315 77.6556 73.5243 80.0001 73.5243Z" fill="#5FEADA"/>
<path d="M80 85.8576C74.2659 85.8576 69.6008 90.5227 69.6008 96.2569C69.6008 96.7858 70.0294 97.2143 70.5583 97.2143H89.4418C89.9707 97.2143 90.3993 96.7858 90.3993 96.2569C90.3993 90.5227 85.7342 85.8576 80 85.8576ZM71.5695 95.2994C72.0463 91.0699 75.6453 87.7725 80 87.7725C84.3547 87.7725 87.9538 91.0699 88.4306 95.2994H71.5695Z" fill="#5FEADA"/>
</svg>
