<svg width="326" height="628" viewBox="0 0 326 628" fill="none" xmlns="http://www.w3.org/2000/svg">
<path d="M481.844 378.443C485.864 427.932 434.804 463.215 389.935 441.953L216.852 359.933C171.983 338.67 166.958 276.809 207.806 248.582L365.379 139.699C406.227 111.472 462.314 138.051 466.334 187.54L481.844 378.443Z" stroke="#F7F8FD"/>
<path d="M465.147 342.93C467.952 377.457 432.329 402.073 401.025 387.239L165.334 275.55C134.03 260.716 130.524 217.557 159.023 197.864L373.593 49.5946C402.092 29.9017 441.222 48.4447 444.027 82.9719L465.147 342.93Z" fill="#F4F9FF"/>
<path d="M283.11 333.371C283.982 344.113 272.899 351.771 263.16 347.156L222.17 327.732C212.431 323.117 211.34 309.689 220.207 303.563L257.524 277.776C266.39 271.65 278.564 277.418 279.437 288.16L283.11 333.371Z" fill="#FF7708"/>
</svg>
