<svg width="164" height="164" viewBox="0 0 164 164" fill="none" xmlns="http://www.w3.org/2000/svg">
<path d="M77.446 44.4294C89.3905 34.7151 107.372 41.5739 109.812 56.7752L116.22 96.6821C118.66 111.883 103.73 124.026 89.3447 118.539L51.5807 104.135C37.1956 98.6476 34.1448 79.646 46.0893 69.9317L77.446 44.4294Z" fill="#F0F3FC"/>
<path d="M74.9365 101.685H95.0632C95.5921 101.685 96.0206 101.256 96.0206 100.727V79.8957C96.0206 79.3668 95.5921 78.9382 95.0632 78.9382H90.4253V78.5319C90.4253 75.5402 87.9915 73.1064 84.9998 73.1064C82.0082 73.1064 79.5743 75.5402 79.5743 78.5319V78.9382H74.9365C74.4076 78.9382 73.979 79.3668 73.979 79.8957V100.727C73.979 101.256 74.4076 101.685 74.9365 101.685ZM81.4892 78.5319C81.4892 76.5962 83.0641 75.0213 84.9998 75.0213C86.9355 75.0213 88.5105 76.5962 88.5105 78.5319V78.9382H81.4892V78.5319ZM75.8939 80.8531H79.5743V82.4489C79.5743 82.9777 80.0029 83.4063 80.5318 83.4063C81.0607 83.4063 81.4892 82.9777 81.4892 82.4489V80.8531H88.5105V82.4489C88.5105 82.9777 88.939 83.4063 89.4679 83.4063C89.9968 83.4063 90.4253 82.9777 90.4253 82.4489V80.8531H94.1058V99.7699H75.8939V80.8531Z" fill="#5FEADA"/>
<path d="M112.722 68H57.2775C56.0216 68 55 69.0217 55 70.2776V112.304C55 113.559 56.0216 114.581 57.2775 114.581H78.189V121.907H69.1586C68.6297 121.907 68.2012 122.336 68.2012 122.865C68.2012 123.393 68.6297 123.822 69.1586 123.822H100.841C101.37 123.822 101.799 123.393 101.799 122.865C101.799 122.336 101.37 121.907 100.841 121.907H91.811V114.581H112.722C113.978 114.581 115 113.559 115 112.304V70.2776C115 69.0217 113.978 68 112.722 68ZM89.8959 121.907H80.1039V114.581H89.8959V121.907ZM113.085 112.304C113.085 112.5 112.919 112.666 112.722 112.666H57.2775C57.0809 112.666 56.9149 112.5 56.9149 112.304V70.2776C56.9149 70.081 57.0809 69.9149 57.2775 69.9149H112.722C112.919 69.9149 113.085 70.081 113.085 70.2776V112.304Z" fill="#2656F3"/>
<path d="M110.082 104.876H59.9176C59.3888 104.876 58.9602 105.305 58.9602 105.834C58.9602 106.363 59.3888 106.791 59.9176 106.791H110.082C110.611 106.791 111.039 106.363 111.039 105.834C111.039 105.305 110.611 104.876 110.082 104.876Z" fill="#2656F3"/>
</svg>
