<svg width="1400" height="1389" viewBox="0 0 1400 1389" fill="none" xmlns="http://www.w3.org/2000/svg">
<path d="M604.192 239.703C659.36 191.399 741.363 190.059 798.079 236.535L1868.48 1113.66C1932.56 1166.17 1941.94 1260.68 1889.43 1324.76L1147.64 2229.99C1095.13 2294.07 1000.62 2303.45 936.546 2250.94L-284.727 1250.19C-356.421 1191.44 -358.204 1082.37 -288.467 1021.31L604.192 239.703Z" fill="url(#paint0_linear)"/>
<mask id="mask0" mask-type="alpha" maskUnits="userSpaceOnUse" x="-402" y="17" width="2386" height="2330">
<path d="M603.192 239.703C658.36 191.399 740.363 190.059 797.079 236.535L1867.48 1113.66C1931.56 1166.17 1940.94 1260.68 1888.43 1324.76L1146.64 2229.99C1094.13 2294.07 999.623 2303.45 935.546 2250.94L-285.727 1250.19C-357.421 1191.44 -359.204 1082.37 -289.467 1021.31L603.192 239.703Z" fill="url(#paint1_linear)"/>
</mask>
<g mask="url(#mask0)">
<path d="M21.2432 575.798C30.9065 514.976 102.787 487.424 150.628 526.203L1125.58 1316.48C1173.42 1355.26 1161.34 1431.29 1103.84 1453.33L-68.0427 1902.52C-125.547 1924.57 -185.348 1876.09 -175.685 1815.27L21.2432 575.798Z" fill="#1876F8"/>
<path d="M1378.94 593.798C1369.28 532.976 1297.4 505.424 1249.56 544.203L274.607 1334.48C226.766 1373.26 238.845 1449.29 296.35 1471.33L1468.23 1920.52C1525.73 1942.57 1585.53 1894.09 1575.87 1833.27L1378.94 593.798Z" fill="#1D86F9"/>
</g>
<defs>
<linearGradient id="paint0_linear" x1="1883.18" y1="1182.03" x2="-350.313" y2="1252.76" gradientUnits="userSpaceOnUse">
<stop stop-color="#0E4DF5"/>
<stop offset="1" stop-color="#2ABBFD"/>
</linearGradient>
<linearGradient id="paint1_linear" x1="1882.18" y1="1182.03" x2="-351.313" y2="1252.76" gradientUnits="userSpaceOnUse">
<stop stop-color="#0E4DF5"/>
<stop offset="1" stop-color="#2ABBFD"/>
</linearGradient>
</defs>
</svg>
