<svg width="499" height="216" viewBox="0 0 499 216" fill="none" xmlns="http://www.w3.org/2000/svg">
<path d="M24.0619 180V168.64H28.7659C29.2565 168.64 29.7045 168.747 30.1099 168.96C30.5259 169.163 30.8832 169.435 31.1819 169.776C31.4805 170.107 31.7152 170.485 31.8859 170.912C32.0565 171.339 32.1419 171.771 32.1419 172.208C32.1419 172.677 32.0619 173.131 31.9019 173.568C31.7419 173.995 31.5179 174.373 31.2299 174.704C30.9419 175.035 30.5952 175.301 30.1899 175.504C29.7952 175.707 29.3525 175.808 28.8619 175.808H25.1819V180H24.0619ZM25.1819 174.816H28.8139C29.1445 174.816 29.4432 174.747 29.7099 174.608C29.9872 174.459 30.2219 174.267 30.4139 174.032C30.6059 173.787 30.7552 173.509 30.8619 173.2C30.9685 172.88 31.0219 172.549 31.0219 172.208C31.0219 171.856 30.9579 171.525 30.8299 171.216C30.7125 170.896 30.5472 170.619 30.3339 170.384C30.1312 170.149 29.8859 169.968 29.5979 169.84C29.3205 169.701 29.0272 169.632 28.7179 169.632H25.1819V174.816ZM35.9685 180.16C35.5738 180.16 35.2058 180.096 34.8645 179.968C34.5338 179.829 34.2405 179.643 33.9845 179.408C33.7392 179.173 33.5472 178.901 33.4085 178.592C33.2698 178.272 33.2005 177.931 33.2005 177.568C33.2005 177.205 33.2858 176.869 33.4565 176.56C33.6272 176.251 33.8672 175.984 34.1765 175.76C34.4858 175.536 34.8538 175.365 35.2805 175.248C35.7072 175.12 36.1765 175.056 36.6885 175.056C37.1152 175.056 37.5472 175.093 37.9845 175.168C38.4218 175.243 38.8112 175.349 39.1525 175.488V174.736C39.1525 174 38.9445 173.419 38.5285 172.992C38.1125 172.555 37.5365 172.336 36.8005 172.336C36.3738 172.336 35.9365 172.421 35.4885 172.592C35.0405 172.763 34.5872 173.008 34.1285 173.328L33.7445 172.608C34.8218 171.883 35.8672 171.52 36.8805 171.52C37.9258 171.52 38.7472 171.813 39.3445 172.4C39.9418 172.987 40.2405 173.797 40.2405 174.832V178.592C40.2405 178.891 40.3738 179.04 40.6405 179.04V180C40.4592 180.032 40.3205 180.048 40.2245 180.048C39.9472 180.048 39.7285 179.979 39.5685 179.84C39.4192 179.701 39.3392 179.509 39.3285 179.264L39.2965 178.608C38.9125 179.109 38.4272 179.493 37.8405 179.76C37.2645 180.027 36.6405 180.16 35.9685 180.16ZM36.2245 179.328C36.7898 179.328 37.3072 179.221 37.7765 179.008C38.2565 178.795 38.6192 178.512 38.8645 178.16C38.9605 178.064 39.0298 177.963 39.0725 177.856C39.1258 177.739 39.1525 177.632 39.1525 177.536V176.176C38.7898 176.037 38.4112 175.931 38.0165 175.856C37.6325 175.781 37.2378 175.744 36.8325 175.744C36.0645 175.744 35.4405 175.904 34.9605 176.224C34.4805 176.544 34.2405 176.965 34.2405 177.488C34.2405 177.744 34.2885 177.984 34.3845 178.208C34.4912 178.432 34.6298 178.629 34.8005 178.8C34.9818 178.96 35.1952 179.088 35.4405 179.184C35.6858 179.28 35.9472 179.328 36.2245 179.328ZM42.3029 172.544C42.6015 172.203 42.9482 171.947 43.3429 171.776C43.7482 171.605 44.1855 171.52 44.6549 171.52C45.3909 171.52 45.9722 171.701 46.3989 172.064C46.8255 172.427 47.0389 172.912 47.0389 173.52C47.0389 174.011 46.9055 174.421 46.6389 174.752C46.3829 175.083 46.0309 175.285 45.5829 175.36C46.1802 175.445 46.6495 175.691 46.9909 176.096C47.3322 176.491 47.5029 176.987 47.5029 177.584C47.5029 177.968 47.4335 178.32 47.2949 178.64C47.1562 178.949 46.9589 179.216 46.7029 179.44C46.4469 179.664 46.1375 179.84 45.7749 179.968C45.4122 180.096 45.0122 180.16 44.5749 180.16C43.9989 180.16 43.5082 180.059 43.1029 179.856C42.6975 179.643 42.3402 179.339 42.0309 178.944L42.6389 178.192C42.8842 178.533 43.1615 178.789 43.4709 178.96C43.7909 179.12 44.1749 179.2 44.6229 179.2C45.2095 179.2 45.6575 179.056 45.9669 178.768C46.2869 178.469 46.4469 178.069 46.4469 177.568C46.4469 177.013 46.2549 176.587 45.8709 176.288C45.4869 175.989 44.9375 175.84 44.2229 175.84H43.6629V174.992H44.2229C44.7882 174.992 45.2309 174.875 45.5509 174.64C45.8709 174.395 46.0309 174.048 46.0309 173.6C46.0309 173.227 45.9029 172.933 45.6469 172.72C45.3909 172.507 45.0389 172.4 44.5909 172.4C44.2709 172.4 43.9669 172.459 43.6789 172.576C43.4015 172.693 43.1242 172.891 42.8469 173.168L42.3029 172.544ZM53.6978 177.28L56.8178 171.664H57.8738V180H56.8178V173.6L54.0178 178.608H53.3778L50.5618 173.6V180H49.4898V171.664H50.5778L53.6978 177.28ZM64.0463 180.16C63.4383 180.16 62.8783 180.048 62.3663 179.824C61.8649 179.589 61.4276 179.275 61.0543 178.88C60.6809 178.475 60.3876 178.011 60.1743 177.488C59.9716 176.965 59.8703 176.405 59.8703 175.808C59.8703 175.221 59.9716 174.672 60.1743 174.16C60.3876 173.637 60.6756 173.184 61.0383 172.8C61.4116 172.405 61.8543 172.096 62.3663 171.872C62.8783 171.637 63.4329 171.52 64.0303 171.52C64.6383 171.52 65.1929 171.637 65.6943 171.872C66.2063 172.096 66.6436 172.405 67.0063 172.8C67.3689 173.195 67.6516 173.648 67.8543 174.16C68.0569 174.672 68.1583 175.216 68.1583 175.792C68.1583 175.877 68.1583 175.963 68.1583 176.048C68.1583 176.133 68.1529 176.192 68.1423 176.224H61.0063C61.0383 176.672 61.1396 177.088 61.3103 177.472C61.4916 177.845 61.7209 178.171 61.9983 178.448C62.2756 178.725 62.5903 178.944 62.9423 179.104C63.3049 179.253 63.6889 179.328 64.0943 179.328C64.3609 179.328 64.6276 179.291 64.8943 179.216C65.1609 179.141 65.4063 179.04 65.6303 178.912C65.8543 178.784 66.0569 178.629 66.2383 178.448C66.4196 178.256 66.5583 178.048 66.6543 177.824L67.5983 178.08C67.4703 178.389 67.2889 178.672 67.0543 178.928C66.8196 179.173 66.5476 179.392 66.2383 179.584C65.9289 179.765 65.5876 179.904 65.2143 180C64.8409 180.107 64.4516 180.16 64.0463 180.16ZM67.1183 175.392C67.0863 174.944 66.9796 174.539 66.7983 174.176C66.6276 173.803 66.4036 173.483 66.1263 173.216C65.8596 172.949 65.5449 172.741 65.1823 172.592C64.8303 172.443 64.4516 172.368 64.0463 172.368C63.6409 172.368 63.2569 172.443 62.8943 172.592C62.5316 172.741 62.2116 172.949 61.9343 173.216C61.6676 173.483 61.4489 173.803 61.2783 174.176C61.1183 174.549 61.0223 174.955 60.9903 175.392H67.1183ZM74.2689 180.16C73.5649 180.16 72.9409 179.984 72.3969 179.632C71.8635 179.269 71.4315 178.816 71.1009 178.272V183.408H70.0129V171.664H70.9889V173.28C71.3302 172.757 71.7729 172.336 72.3169 172.016C72.8609 171.685 73.4529 171.52 74.0929 171.52C74.6689 171.52 75.1969 171.643 75.6769 171.888C76.1569 172.123 76.5729 172.443 76.9249 172.848C77.2769 173.243 77.5489 173.701 77.7409 174.224C77.9435 174.747 78.0449 175.285 78.0449 175.84C78.0449 176.427 77.9542 176.981 77.7729 177.504C77.5915 178.027 77.3302 178.485 76.9889 178.88C76.6582 179.275 76.2582 179.589 75.7889 179.824C75.3302 180.048 74.8235 180.16 74.2689 180.16ZM73.9649 179.2C74.4129 179.2 74.8182 179.104 75.1809 178.912C75.5542 178.72 75.8689 178.469 76.1249 178.16C76.3915 177.84 76.5942 177.483 76.7329 177.088C76.8715 176.683 76.9409 176.267 76.9409 175.84C76.9409 175.392 76.8609 174.965 76.7009 174.56C76.5409 174.155 76.3222 173.797 76.0449 173.488C75.7675 173.179 75.4369 172.933 75.0529 172.752C74.6795 172.571 74.2742 172.48 73.8369 172.48C73.5595 172.48 73.2662 172.539 72.9569 172.656C72.6582 172.763 72.3755 172.912 72.1089 173.104C71.8529 173.285 71.6289 173.504 71.4369 173.76C71.2555 174.005 71.1435 174.267 71.1009 174.544V177.104C71.2289 177.403 71.3889 177.68 71.5809 177.936C71.7835 178.192 72.0075 178.416 72.2529 178.608C72.5089 178.789 72.7809 178.933 73.0689 179.04C73.3569 179.147 73.6555 179.2 73.9649 179.2ZM88.3812 169.68C87.4426 169.893 86.6959 170.32 86.1412 170.96C85.5972 171.589 85.2559 172.485 85.1172 173.648C85.4479 173.136 85.8586 172.741 86.3492 172.464C86.8399 172.187 87.4052 172.048 88.0452 172.048C88.5892 172.048 89.0852 172.149 89.5332 172.352C89.9813 172.555 90.3653 172.837 90.6853 173.2C91.0159 173.552 91.2666 173.979 91.4373 174.48C91.6186 174.981 91.7093 175.531 91.7093 176.128C91.7093 176.725 91.6186 177.275 91.4373 177.776C91.2559 178.267 90.9946 178.688 90.6533 179.04C90.3119 179.392 89.8959 179.669 89.4053 179.872C88.9252 180.064 88.3812 180.16 87.7733 180.16C86.5466 180.16 85.6132 179.728 84.9732 178.864C84.3332 178 84.0132 176.773 84.0132 175.184C84.0132 174.213 84.1092 173.36 84.3012 172.624C84.5039 171.888 84.7866 171.259 85.1492 170.736C85.5226 170.203 85.9759 169.776 86.5092 169.456C87.0426 169.125 87.6452 168.88 88.3172 168.72L90.8133 168.144L91.0213 169.056L88.3812 169.68ZM85.1332 176.08C85.1332 176.528 85.1972 176.949 85.3252 177.344C85.4532 177.728 85.6346 178.064 85.8692 178.352C86.1146 178.629 86.4026 178.848 86.7332 179.008C87.0746 179.168 87.4532 179.248 87.8692 179.248C88.2852 179.248 88.6586 179.173 88.9893 179.024C89.3306 178.864 89.6186 178.645 89.8533 178.368C90.0986 178.091 90.2853 177.765 90.4132 177.392C90.5412 177.008 90.6052 176.592 90.6052 176.144C90.6052 175.195 90.3546 174.443 89.8533 173.888C89.3519 173.333 88.6746 173.056 87.8212 173.056C87.4266 173.056 87.0639 173.125 86.7332 173.264C86.4026 173.403 86.1199 173.605 85.8852 173.872C85.6506 174.128 85.4639 174.443 85.3252 174.816C85.1972 175.189 85.1332 175.611 85.1332 176.08ZM95.8541 180.16C95.4595 180.16 95.0915 180.096 94.7501 179.968C94.4195 179.829 94.1261 179.643 93.8701 179.408C93.6248 179.173 93.4328 178.901 93.2941 178.592C93.1555 178.272 93.0861 177.931 93.0861 177.568C93.0861 177.205 93.1715 176.869 93.3421 176.56C93.5128 176.251 93.7528 175.984 94.0621 175.76C94.3715 175.536 94.7395 175.365 95.1661 175.248C95.5928 175.12 96.0621 175.056 96.5741 175.056C97.0008 175.056 97.4328 175.093 97.8701 175.168C98.3075 175.243 98.6968 175.349 99.0381 175.488V174.736C99.0381 174 98.8301 173.419 98.4141 172.992C97.9981 172.555 97.4221 172.336 96.6861 172.336C96.2595 172.336 95.8221 172.421 95.3741 172.592C94.9261 172.763 94.4728 173.008 94.0141 173.328L93.6301 172.608C94.7075 171.883 95.7528 171.52 96.7661 171.52C97.8115 171.52 98.6328 171.813 99.2301 172.4C99.8275 172.987 100.126 173.797 100.126 174.832V178.592C100.126 178.891 100.259 179.04 100.526 179.04V180C100.345 180.032 100.206 180.048 100.11 180.048C99.8328 180.048 99.6141 179.979 99.4541 179.84C99.3048 179.701 99.2248 179.509 99.2141 179.264L99.1821 178.608C98.7981 179.109 98.3128 179.493 97.7261 179.76C97.1501 180.027 96.5261 180.16 95.8541 180.16ZM96.1101 179.328C96.6755 179.328 97.1928 179.221 97.6621 179.008C98.1421 178.795 98.5048 178.512 98.7501 178.16C98.8461 178.064 98.9155 177.963 98.9581 177.856C99.0115 177.739 99.0381 177.632 99.0381 177.536V176.176C98.6755 176.037 98.2968 175.931 97.9021 175.856C97.5181 175.781 97.1235 175.744 96.7181 175.744C95.9501 175.744 95.3261 175.904 94.8461 176.224C94.3661 176.544 94.1261 176.965 94.1261 177.488C94.1261 177.744 94.1741 177.984 94.2701 178.208C94.3768 178.432 94.5155 178.629 94.6861 178.8C94.8675 178.96 95.0808 179.088 95.3261 179.184C95.5715 179.28 95.8328 179.328 96.1101 179.328ZM102.188 172.544C102.487 172.203 102.834 171.947 103.228 171.776C103.634 171.605 104.071 171.52 104.54 171.52C105.276 171.52 105.858 171.701 106.284 172.064C106.711 172.427 106.924 172.912 106.924 173.52C106.924 174.011 106.791 174.421 106.524 174.752C106.268 175.083 105.916 175.285 105.468 175.36C106.066 175.445 106.535 175.691 106.876 176.096C107.218 176.491 107.388 176.987 107.388 177.584C107.388 177.968 107.319 178.32 107.18 178.64C107.042 178.949 106.844 179.216 106.588 179.44C106.332 179.664 106.023 179.84 105.66 179.968C105.298 180.096 104.898 180.16 104.46 180.16C103.884 180.16 103.394 180.059 102.988 179.856C102.583 179.643 102.226 179.339 101.916 178.944L102.524 178.192C102.77 178.533 103.047 178.789 103.356 178.96C103.676 179.12 104.06 179.2 104.508 179.2C105.095 179.2 105.543 179.056 105.852 178.768C106.172 178.469 106.332 178.069 106.332 177.568C106.332 177.013 106.14 176.587 105.756 176.288C105.372 175.989 104.823 175.84 104.108 175.84H103.548V174.992H104.108C104.674 174.992 105.116 174.875 105.436 174.64C105.756 174.395 105.916 174.048 105.916 173.6C105.916 173.227 105.788 172.933 105.532 172.72C105.276 172.507 104.924 172.4 104.476 172.4C104.156 172.4 103.852 172.459 103.564 172.576C103.287 172.693 103.01 172.891 102.732 173.168L102.188 172.544ZM109.375 171.664H110.447V174.624H112.255C112.639 174.624 113.002 174.683 113.343 174.8C113.685 174.917 113.983 175.088 114.239 175.312C114.495 175.536 114.698 175.819 114.847 176.16C114.997 176.491 115.071 176.875 115.071 177.312C115.071 177.749 114.997 178.139 114.847 178.48C114.698 178.811 114.495 179.088 114.239 179.312C113.983 179.536 113.685 179.707 113.343 179.824C113.002 179.941 112.639 180 112.255 180H109.375V171.664ZM116.111 171.664H117.167V180H116.111V171.664ZM112.255 179.072C112.81 179.072 113.237 178.917 113.535 178.608C113.845 178.288 113.999 177.856 113.999 177.312C113.999 176.768 113.845 176.341 113.535 176.032C113.226 175.712 112.799 175.552 112.255 175.552H110.447V179.072H112.255Z" fill="#31384E"/>
<path d="M197.243 180.08C196.453 180.08 195.728 179.92 195.067 179.6C194.416 179.269 193.856 178.837 193.387 178.304C192.917 177.76 192.555 177.141 192.299 176.448C192.043 175.755 191.915 175.045 191.915 174.32C191.915 173.563 192.048 172.837 192.315 172.144C192.592 171.451 192.971 170.837 193.451 170.304C193.931 169.771 194.496 169.349 195.147 169.04C195.797 168.72 196.501 168.56 197.259 168.56C198.048 168.56 198.768 168.731 199.419 169.072C200.08 169.403 200.64 169.84 201.099 170.384C201.568 170.928 201.931 171.547 202.187 172.24C202.443 172.923 202.571 173.621 202.571 174.336C202.571 175.093 202.432 175.819 202.155 176.512C201.888 177.205 201.515 177.819 201.035 178.352C200.565 178.875 200.005 179.296 199.355 179.616C198.704 179.925 198 180.08 197.243 180.08ZM193.035 174.32C193.035 174.939 193.136 175.536 193.339 176.112C193.541 176.677 193.829 177.184 194.203 177.632C194.576 178.069 195.019 178.421 195.531 178.688C196.043 178.944 196.613 179.072 197.243 179.072C197.883 179.072 198.464 178.933 198.987 178.656C199.509 178.379 199.952 178.016 200.315 177.568C200.677 177.12 200.955 176.613 201.147 176.048C201.349 175.483 201.451 174.907 201.451 174.32C201.451 173.701 201.344 173.109 201.131 172.544C200.928 171.968 200.64 171.461 200.267 171.024C199.893 170.587 199.451 170.24 198.939 169.984C198.427 169.717 197.861 169.584 197.243 169.584C196.603 169.584 196.021 169.723 195.499 170C194.976 170.267 194.533 170.624 194.171 171.072C193.808 171.52 193.525 172.027 193.323 172.592C193.131 173.157 193.035 173.733 193.035 174.32ZM208.874 180.16C208.17 180.16 207.546 179.984 207.002 179.632C206.469 179.269 206.037 178.816 205.706 178.272V183.408H204.618V171.664H205.594V173.28C205.936 172.757 206.378 172.336 206.922 172.016C207.466 171.685 208.058 171.52 208.698 171.52C209.274 171.52 209.802 171.643 210.282 171.888C210.762 172.123 211.178 172.443 211.53 172.848C211.882 173.243 212.154 173.701 212.346 174.224C212.549 174.747 212.65 175.285 212.65 175.84C212.65 176.427 212.56 176.981 212.378 177.504C212.197 178.027 211.936 178.485 211.594 178.88C211.264 179.275 210.864 179.589 210.394 179.824C209.936 180.048 209.429 180.16 208.874 180.16ZM208.57 179.2C209.018 179.2 209.424 179.104 209.786 178.912C210.16 178.72 210.474 178.469 210.73 178.16C210.997 177.84 211.2 177.483 211.338 177.088C211.477 176.683 211.546 176.267 211.546 175.84C211.546 175.392 211.466 174.965 211.306 174.56C211.146 174.155 210.928 173.797 210.65 173.488C210.373 173.179 210.042 172.933 209.658 172.752C209.285 172.571 208.88 172.48 208.442 172.48C208.165 172.48 207.872 172.539 207.562 172.656C207.264 172.763 206.981 172.912 206.714 173.104C206.458 173.285 206.234 173.504 206.042 173.76C205.861 174.005 205.749 174.267 205.706 174.544V177.104C205.834 177.403 205.994 177.68 206.186 177.936C206.389 178.192 206.613 178.416 206.858 178.608C207.114 178.789 207.386 178.933 207.674 179.04C207.962 179.147 208.261 179.2 208.57 179.2ZM218.253 180.16C217.645 180.16 217.085 180.048 216.573 179.824C216.072 179.589 215.635 179.275 215.261 178.88C214.888 178.475 214.595 178.011 214.381 177.488C214.179 176.965 214.077 176.405 214.077 175.808C214.077 175.221 214.179 174.672 214.381 174.16C214.595 173.637 214.883 173.184 215.245 172.8C215.619 172.405 216.061 172.096 216.573 171.872C217.085 171.637 217.64 171.52 218.237 171.52C218.845 171.52 219.4 171.637 219.901 171.872C220.413 172.096 220.851 172.405 221.213 172.8C221.576 173.195 221.859 173.648 222.061 174.16C222.264 174.672 222.365 175.216 222.365 175.792C222.365 175.877 222.365 175.963 222.365 176.048C222.365 176.133 222.36 176.192 222.349 176.224H215.213C215.245 176.672 215.347 177.088 215.517 177.472C215.699 177.845 215.928 178.171 216.205 178.448C216.483 178.725 216.797 178.944 217.149 179.104C217.512 179.253 217.896 179.328 218.301 179.328C218.568 179.328 218.835 179.291 219.101 179.216C219.368 179.141 219.613 179.04 219.837 178.912C220.061 178.784 220.264 178.629 220.445 178.448C220.627 178.256 220.765 178.048 220.861 177.824L221.805 178.08C221.677 178.389 221.496 178.672 221.261 178.928C221.027 179.173 220.755 179.392 220.445 179.584C220.136 179.765 219.795 179.904 219.421 180C219.048 180.107 218.659 180.16 218.253 180.16ZM221.325 175.392C221.293 174.944 221.187 174.539 221.005 174.176C220.835 173.803 220.611 173.483 220.333 173.216C220.067 172.949 219.752 172.741 219.389 172.592C219.037 172.443 218.659 172.368 218.253 172.368C217.848 172.368 217.464 172.443 217.101 172.592C216.739 172.741 216.419 172.949 216.141 173.216C215.875 173.483 215.656 173.803 215.485 174.176C215.325 174.549 215.229 174.955 215.197 175.392H221.325ZM231.212 180H230.124V175.344C230.124 174.352 229.975 173.632 229.676 173.184C229.388 172.736 228.94 172.512 228.332 172.512C228.012 172.512 227.692 172.571 227.372 172.688C227.052 172.805 226.753 172.971 226.476 173.184C226.209 173.397 225.969 173.653 225.756 173.952C225.543 174.24 225.388 174.555 225.292 174.896V180H224.204V171.664H225.196V173.552C225.537 172.944 226.023 172.453 226.652 172.08C227.292 171.707 227.985 171.52 228.732 171.52C229.191 171.52 229.58 171.605 229.9 171.776C230.22 171.947 230.476 172.187 230.668 172.496C230.86 172.805 230.999 173.184 231.084 173.632C231.169 174.08 231.212 174.576 231.212 175.12V180ZM238.154 180V168.64H242.954C243.445 168.64 243.893 168.747 244.298 168.96C244.714 169.163 245.072 169.435 245.37 169.776C245.669 170.107 245.898 170.485 246.058 170.912C246.229 171.339 246.314 171.771 246.314 172.208C246.314 172.624 246.25 173.024 246.122 173.408C246.005 173.781 245.834 174.123 245.61 174.432C245.397 174.731 245.136 174.987 244.826 175.2C244.517 175.403 244.17 175.541 243.786 175.616L246.57 180H245.306L242.634 175.808H239.274V180H238.154ZM239.274 174.816H242.986C243.317 174.816 243.616 174.747 243.882 174.608C244.16 174.459 244.394 174.261 244.586 174.016C244.778 173.771 244.928 173.493 245.034 173.184C245.141 172.875 245.194 172.549 245.194 172.208C245.194 171.867 245.13 171.541 245.002 171.232C244.885 170.912 244.72 170.635 244.506 170.4C244.304 170.165 244.058 169.979 243.77 169.84C243.493 169.701 243.2 169.632 242.89 169.632H239.274V174.816ZM250.53 180.16C250.135 180.16 249.767 180.096 249.426 179.968C249.095 179.829 248.802 179.643 248.546 179.408C248.301 179.173 248.109 178.901 247.97 178.592C247.831 178.272 247.762 177.931 247.762 177.568C247.762 177.205 247.847 176.869 248.018 176.56C248.189 176.251 248.429 175.984 248.738 175.76C249.047 175.536 249.415 175.365 249.842 175.248C250.269 175.12 250.738 175.056 251.25 175.056C251.677 175.056 252.109 175.093 252.546 175.168C252.983 175.243 253.373 175.349 253.714 175.488V174.736C253.714 174 253.506 173.419 253.09 172.992C252.674 172.555 252.098 172.336 251.362 172.336C250.935 172.336 250.498 172.421 250.05 172.592C249.602 172.763 249.149 173.008 248.69 173.328L248.306 172.608C249.383 171.883 250.429 171.52 251.442 171.52C252.487 171.52 253.309 171.813 253.906 172.4C254.503 172.987 254.802 173.797 254.802 174.832V178.592C254.802 178.891 254.935 179.04 255.202 179.04V180C255.021 180.032 254.882 180.048 254.786 180.048C254.509 180.048 254.29 179.979 254.13 179.84C253.981 179.701 253.901 179.509 253.89 179.264L253.858 178.608C253.474 179.109 252.989 179.493 252.402 179.76C251.826 180.027 251.202 180.16 250.53 180.16ZM250.786 179.328C251.351 179.328 251.869 179.221 252.338 179.008C252.818 178.795 253.181 178.512 253.426 178.16C253.522 178.064 253.591 177.963 253.634 177.856C253.687 177.739 253.714 177.632 253.714 177.536V176.176C253.351 176.037 252.973 175.931 252.578 175.856C252.194 175.781 251.799 175.744 251.394 175.744C250.626 175.744 250.002 175.904 249.522 176.224C249.042 176.544 248.802 176.965 248.802 177.488C248.802 177.744 248.85 177.984 248.946 178.208C249.053 178.432 249.191 178.629 249.362 178.8C249.543 178.96 249.757 179.088 250.002 179.184C250.247 179.28 250.509 179.328 250.786 179.328ZM261.25 179.6C261.186 179.632 261.09 179.675 260.962 179.728C260.845 179.781 260.706 179.835 260.546 179.888C260.386 179.941 260.205 179.989 260.002 180.032C259.8 180.075 259.586 180.096 259.362 180.096C259.128 180.096 258.904 180.064 258.69 180C258.477 179.936 258.29 179.84 258.13 179.712C257.97 179.573 257.842 179.403 257.746 179.2C257.65 178.997 257.602 178.763 257.602 178.496V172.528H256.45V171.664H257.602V168.848H258.69V171.664H260.61V172.528H258.69V178.192C258.712 178.501 258.818 178.731 259.01 178.88C259.213 179.019 259.442 179.088 259.698 179.088C260.008 179.088 260.28 179.04 260.514 178.944C260.749 178.837 260.898 178.763 260.962 178.72L261.25 179.6ZM266.167 180.16C265.559 180.16 264.999 180.048 264.487 179.824C263.985 179.589 263.548 179.275 263.175 178.88C262.801 178.475 262.508 178.011 262.295 177.488C262.092 176.965 261.991 176.405 261.991 175.808C261.991 175.221 262.092 174.672 262.295 174.16C262.508 173.637 262.796 173.184 263.159 172.8C263.532 172.405 263.975 172.096 264.487 171.872C264.999 171.637 265.553 171.52 266.151 171.52C266.759 171.52 267.313 171.637 267.815 171.872C268.327 172.096 268.764 172.405 269.127 172.8C269.489 173.195 269.772 173.648 269.975 174.16C270.177 174.672 270.279 175.216 270.279 175.792C270.279 175.877 270.279 175.963 270.279 176.048C270.279 176.133 270.273 176.192 270.263 176.224H263.127C263.159 176.672 263.26 177.088 263.431 177.472C263.612 177.845 263.841 178.171 264.119 178.448C264.396 178.725 264.711 178.944 265.063 179.104C265.425 179.253 265.809 179.328 266.215 179.328C266.481 179.328 266.748 179.291 267.015 179.216C267.281 179.141 267.527 179.04 267.751 178.912C267.975 178.784 268.177 178.629 268.359 178.448C268.54 178.256 268.679 178.048 268.775 177.824L269.719 178.08C269.591 178.389 269.409 178.672 269.175 178.928C268.94 179.173 268.668 179.392 268.359 179.584C268.049 179.765 267.708 179.904 267.335 180C266.961 180.107 266.572 180.16 266.167 180.16ZM269.239 175.392C269.207 174.944 269.1 174.539 268.919 174.176C268.748 173.803 268.524 173.483 268.247 173.216C267.98 172.949 267.665 172.741 267.303 172.592C266.951 172.443 266.572 172.368 266.167 172.368C265.761 172.368 265.377 172.443 265.015 172.592C264.652 172.741 264.332 172.949 264.055 173.216C263.788 173.483 263.569 173.803 263.399 174.176C263.239 174.549 263.143 174.955 263.111 175.392H269.239Z" fill="#31384E"/>
<path d="M82.736 29V24.168H71.792L70.992 20.68L83.28 6.44H87.44V20.168H90.448V24.168H87.44V29H82.736ZM76.784 20.168H82.736V13.192L76.784 20.168ZM102.142 29.384C98.8998 29.384 96.1052 28.264 93.7585 26.024L96.7345 22.472C98.5265 24.0933 100.308 24.904 102.078 24.904C103.252 24.904 104.169 24.6267 104.831 24.072C105.492 23.5173 105.823 22.7387 105.823 21.736C105.823 20.7973 105.46 20.0613 104.734 19.528C104.009 18.9733 103.049 18.696 101.854 18.696C100.66 18.696 99.4118 18.9733 98.1105 19.528L95.2625 17.64L95.9025 6.6H109.663V10.92H100.127L99.8705 14.792C100.894 14.536 101.876 14.408 102.814 14.408C105.14 14.408 107.028 15.0053 108.479 16.2C109.929 17.3947 110.655 19.208 110.655 21.64C110.655 24.008 109.876 25.896 108.319 27.304C106.783 28.6907 104.724 29.384 102.142 29.384ZM125.46 29L135.476 10.856H124.948V6.6H141.076V10.312L131.028 29H125.46ZM148.913 29V11.432L145.009 12.392L143.985 8.36L150.417 6.44H153.777V29H148.913ZM159.725 29L169.741 10.856H159.213V6.6H175.341V10.312L165.293 29H159.725Z" fill="#0F50F6"/>
<path d="M0.882 80V77.804L5.076 74.366C5.904 73.682 6.474 73.136 6.786 72.728C7.098 72.308 7.254 71.846 7.254 71.342C7.254 70.826 7.098 70.424 6.786 70.136C6.474 69.848 6.066 69.704 5.562 69.704C5.094 69.704 4.668 69.836 4.284 70.1C3.912 70.352 3.48 70.784 2.988 71.396L1.044 69.83C1.704 68.93 2.382 68.27 3.078 67.85C3.786 67.43 4.674 67.22 5.742 67.22C7.05 67.22 8.1 67.58 8.892 68.3C9.684 69.008 10.08 69.956 10.08 71.144C10.08 71.828 9.948 72.446 9.684 72.998C9.42 73.538 9.078 74.018 8.658 74.438C8.238 74.846 7.608 75.374 6.768 76.022L4.716 77.606H10.206V80H0.882ZM17.4968 80.216C15.9728 80.216 14.7608 79.766 13.8608 78.866C12.8648 77.87 12.3668 76.268 12.3668 74.06C12.3668 72.02 12.8348 70.364 13.7708 69.092C14.7068 67.82 16.0808 67.184 17.8928 67.184C19.3568 67.184 20.6708 67.646 21.8348 68.57L20.3768 70.712C19.9208 70.364 19.5008 70.112 19.1168 69.956C18.7448 69.788 18.3068 69.704 17.8028 69.704C17.0588 69.704 16.4708 69.974 16.0388 70.514C15.6188 71.042 15.3608 71.744 15.2648 72.62C16.0808 72.08 16.9508 71.81 17.8748 71.81C19.1708 71.81 20.2328 72.164 21.0608 72.872C21.8888 73.58 22.3028 74.576 22.3028 75.86C22.3028 77.132 21.8468 78.176 20.9348 78.992C20.0228 79.808 18.8768 80.216 17.4968 80.216ZM15.7868 77.318C16.1828 77.666 16.7168 77.84 17.3888 77.84C18.0608 77.84 18.5888 77.666 18.9728 77.318C19.3568 76.97 19.5488 76.514 19.5488 75.95C19.5488 75.41 19.3508 74.972 18.9548 74.636C18.5588 74.288 18.0248 74.114 17.3528 74.114C16.6808 74.114 16.1528 74.282 15.7688 74.618C15.3848 74.954 15.1928 75.404 15.1928 75.968C15.1928 76.508 15.3908 76.958 15.7868 77.318ZM32.2733 80V70.118L30.0773 70.658L29.5013 68.39L33.1193 67.31H35.0093V80H32.2733ZM44.007 80V77.282H37.851L37.401 75.32L44.313 67.31H46.653V75.032H48.345V77.282H46.653V80H44.007ZM40.659 75.032H44.007V71.108L40.659 75.032ZM50.3152 80V77.804L54.5092 74.366C55.3372 73.682 55.9072 73.136 56.2192 72.728C56.5312 72.308 56.6872 71.846 56.6872 71.342C56.6872 70.826 56.5312 70.424 56.2192 70.136C55.9072 69.848 55.4992 69.704 54.9952 69.704C54.5272 69.704 54.1012 69.836 53.7172 70.1C53.3452 70.352 52.9132 70.784 52.4212 71.396L50.4772 69.83C51.1372 68.93 51.8152 68.27 52.5112 67.85C53.2192 67.43 54.1072 67.22 55.1752 67.22C56.4832 67.22 57.5332 67.58 58.3252 68.3C59.1172 69.008 59.5132 69.956 59.5132 71.144C59.5132 71.828 59.3812 72.446 59.1172 72.998C58.8532 73.538 58.5112 74.018 58.0912 74.438C57.6712 74.846 57.0412 75.374 56.2012 76.022L54.1492 77.606H59.6392V80H50.3152Z" fill="#31384E"/>
<rect x="41" y="94" width="15" height="54" fill="#C4C4C4"/>
<rect x="70" y="53" width="15" height="95" fill="#4B7CF8"/>
<path d="M244.696 29V11.432L240.792 12.392L239.768 8.36L246.2 6.44H249.56V29H244.696ZM258.516 29V11.432L254.612 12.392L253.588 8.36L260.02 6.44H263.38V29H258.516Z" fill="#0F50F6"/>
<path d="M206.49 80.216C204.666 80.216 203.094 79.586 201.774 78.326L203.448 76.328C204.456 77.24 205.458 77.696 206.454 77.696C207.114 77.696 207.63 77.54 208.002 77.228C208.374 76.916 208.56 76.478 208.56 75.914C208.56 75.386 208.356 74.972 207.948 74.672C207.54 74.36 207 74.204 206.328 74.204C205.656 74.204 204.954 74.36 204.222 74.672L202.62 73.61L202.98 67.4H210.72V69.83H205.356L205.212 72.008C205.788 71.864 206.34 71.792 206.868 71.792C208.176 71.792 209.238 72.128 210.054 72.8C210.87 73.472 211.278 74.492 211.278 75.86C211.278 77.192 210.84 78.254 209.964 79.046C209.1 79.826 207.942 80.216 206.49 80.216Z" fill="#3E4559"/>
<path d="M276.392 10.568C275.88 11.1227 275.224 11.4 274.424 11.4C273.624 11.4 272.973 11.128 272.472 10.584C271.971 10.0293 271.72 9.34667 271.72 8.536C271.72 7.72533 271.976 7.048 272.488 6.504C273 5.94933 273.656 5.672 274.456 5.672C275.256 5.672 275.907 5.94933 276.408 6.504C276.909 7.048 277.16 7.72533 277.16 8.536C277.16 9.336 276.904 10.0133 276.392 10.568ZM272.84 17L281.016 5.8H282.92L274.744 17H272.84ZM283.272 16.296C282.76 16.8507 282.104 17.128 281.304 17.128C280.504 17.128 279.853 16.856 279.352 16.312C278.851 15.7573 278.6 15.0747 278.6 14.264C278.6 13.4533 278.856 12.776 279.368 12.232C279.88 11.6773 280.536 11.4 281.336 11.4C282.136 11.4 282.787 11.6773 283.288 12.232C283.789 12.776 284.04 13.4533 284.04 14.264C284.04 15.064 283.784 15.7413 283.272 16.296ZM274.456 9.944C274.776 9.944 275.027 9.81067 275.208 9.544C275.389 9.26667 275.48 8.93067 275.48 8.536C275.48 8.152 275.379 7.82133 275.176 7.544C274.984 7.26667 274.733 7.128 274.424 7.128C274.104 7.128 273.853 7.26133 273.672 7.528C273.491 7.79467 273.4 8.13067 273.4 8.536C273.4 8.92 273.496 9.25067 273.688 9.528C273.891 9.80533 274.147 9.944 274.456 9.944ZM281.336 15.672C281.656 15.672 281.907 15.5387 282.088 15.272C282.269 14.9947 282.36 14.6587 282.36 14.264C282.36 13.88 282.259 13.5493 282.056 13.272C281.864 12.9947 281.613 12.856 281.304 12.856C280.984 12.856 280.733 12.9893 280.552 13.256C280.371 13.5227 280.28 13.8587 280.28 14.264C280.28 14.648 280.376 14.9787 280.568 15.256C280.771 15.5333 281.027 15.672 281.336 15.672Z" fill="#0F50F6"/>
<path d="M216.718 71.372C216.27 71.8573 215.696 72.1 214.996 72.1C214.296 72.1 213.727 71.862 213.288 71.386C212.849 70.9007 212.63 70.3033 212.63 69.594C212.63 68.8847 212.854 68.292 213.302 67.816C213.75 67.3307 214.324 67.088 215.024 67.088C215.724 67.088 216.293 67.3307 216.732 67.816C217.171 68.292 217.39 68.8847 217.39 69.594C217.39 70.294 217.166 70.8867 216.718 71.372ZM213.61 77L220.764 67.2H222.43L215.276 77H213.61ZM222.738 76.384C222.29 76.8693 221.716 77.112 221.016 77.112C220.316 77.112 219.747 76.874 219.308 76.398C218.869 75.9127 218.65 75.3153 218.65 74.606C218.65 73.8967 218.874 73.304 219.322 72.828C219.77 72.3427 220.344 72.1 221.044 72.1C221.744 72.1 222.313 72.3427 222.752 72.828C223.191 73.304 223.41 73.8967 223.41 74.606C223.41 75.306 223.186 75.8987 222.738 76.384ZM215.024 70.826C215.304 70.826 215.523 70.7093 215.682 70.476C215.841 70.2333 215.92 69.9393 215.92 69.594C215.92 69.258 215.831 68.9687 215.654 68.726C215.486 68.4833 215.267 68.362 214.996 68.362C214.716 68.362 214.497 68.4787 214.338 68.712C214.179 68.9453 214.1 69.2393 214.1 69.594C214.1 69.93 214.184 70.2193 214.352 70.462C214.529 70.7047 214.753 70.826 215.024 70.826ZM221.044 75.838C221.324 75.838 221.543 75.7213 221.702 75.488C221.861 75.2453 221.94 74.9513 221.94 74.606C221.94 74.27 221.851 73.9807 221.674 73.738C221.506 73.4953 221.287 73.374 221.016 73.374C220.736 73.374 220.517 73.4907 220.358 73.724C220.199 73.9573 220.12 74.2513 220.12 74.606C220.12 74.942 220.204 75.2313 220.372 75.474C220.549 75.7167 220.773 75.838 221.044 75.838Z" fill="#31384E"/>
<rect x="211" y="94" width="15" height="54" fill="#C4C4C4"/>
<rect x="240" y="53" width="15" height="95" fill="#4B7CF8"/>
<path d="M368.512 177.072C368.512 177.499 368.427 177.893 368.256 178.256C368.086 178.608 367.856 178.917 367.568 179.184C367.28 179.44 366.944 179.643 366.56 179.792C366.176 179.931 365.766 180 365.328 180H359.968V168.64H365.44C365.835 168.64 366.192 168.725 366.512 168.896C366.832 169.067 367.104 169.291 367.328 169.568C367.552 169.835 367.723 170.144 367.84 170.496C367.968 170.837 368.032 171.184 368.032 171.536C368.032 172.112 367.888 172.64 367.6 173.12C367.312 173.589 366.912 173.941 366.4 174.176C367.051 174.368 367.563 174.725 367.936 175.248C368.32 175.771 368.512 176.379 368.512 177.072ZM367.392 176.88C367.392 176.603 367.344 176.336 367.248 176.08C367.152 175.813 367.014 175.584 366.832 175.392C366.662 175.189 366.454 175.029 366.208 174.912C365.974 174.784 365.718 174.72 365.44 174.72H361.088V179.024H365.328C365.616 179.024 365.883 178.965 366.128 178.848C366.384 178.731 366.603 178.576 366.784 178.384C366.976 178.181 367.126 177.952 367.232 177.696C367.339 177.429 367.392 177.157 367.392 176.88ZM361.088 169.616V173.808H364.992C365.27 173.808 365.526 173.749 365.76 173.632C366.006 173.515 366.214 173.36 366.384 173.168C366.555 172.976 366.688 172.757 366.784 172.512C366.88 172.256 366.928 171.989 366.928 171.712C366.928 171.424 366.88 171.152 366.784 170.896C366.699 170.64 366.571 170.421 366.4 170.24C366.24 170.048 366.048 169.899 365.824 169.792C365.6 169.675 365.355 169.616 365.088 169.616H361.088ZM370.816 171.664H371.888V174.624H373.696C374.08 174.624 374.443 174.683 374.784 174.8C375.125 174.917 375.424 175.088 375.68 175.312C375.936 175.536 376.139 175.819 376.288 176.16C376.437 176.491 376.512 176.875 376.512 177.312C376.512 177.749 376.437 178.139 376.288 178.48C376.139 178.811 375.936 179.088 375.68 179.312C375.424 179.536 375.125 179.707 374.784 179.824C374.443 179.941 374.08 180 373.696 180H370.816V171.664ZM377.552 171.664H378.608V180H377.552V171.664ZM373.696 179.072C374.251 179.072 374.677 178.917 374.976 178.608C375.285 178.288 375.44 177.856 375.44 177.312C375.44 176.768 375.285 176.341 374.976 176.032C374.667 175.712 374.24 175.552 373.696 175.552H371.888V179.072H373.696ZM385.451 180.16C384.747 180.16 384.123 179.984 383.579 179.632C383.045 179.269 382.613 178.816 382.283 178.272V183.408H381.195V171.664H382.171V173.28C382.512 172.757 382.955 172.336 383.499 172.016C384.043 171.685 384.635 171.52 385.275 171.52C385.851 171.52 386.379 171.643 386.859 171.888C387.339 172.123 387.755 172.443 388.107 172.848C388.459 173.243 388.731 173.701 388.923 174.224C389.125 174.747 389.227 175.285 389.227 175.84C389.227 176.427 389.136 176.981 388.955 177.504C388.773 178.027 388.512 178.485 388.171 178.88C387.84 179.275 387.44 179.589 386.971 179.824C386.512 180.048 386.005 180.16 385.451 180.16ZM385.147 179.2C385.595 179.2 386 179.104 386.363 178.912C386.736 178.72 387.051 178.469 387.307 178.16C387.573 177.84 387.776 177.483 387.915 177.088C388.053 176.683 388.123 176.267 388.123 175.84C388.123 175.392 388.043 174.965 387.883 174.56C387.723 174.155 387.504 173.797 387.227 173.488C386.949 173.179 386.619 172.933 386.235 172.752C385.861 172.571 385.456 172.48 385.019 172.48C384.741 172.48 384.448 172.539 384.139 172.656C383.84 172.763 383.557 172.912 383.291 173.104C383.035 173.285 382.811 173.504 382.619 173.76C382.437 174.005 382.325 174.267 382.283 174.544V177.104C382.411 177.403 382.571 177.68 382.763 177.936C382.965 178.192 383.189 178.416 383.435 178.608C383.691 178.789 383.963 178.933 384.251 179.04C384.539 179.147 384.837 179.2 385.147 179.2ZM390.964 182.208C391.124 182.357 391.284 182.459 391.444 182.512C391.604 182.565 391.774 182.592 391.956 182.592C392.094 182.592 392.228 182.549 392.356 182.464C392.494 182.389 392.628 182.251 392.756 182.048C392.894 181.856 393.033 181.595 393.172 181.264C393.31 180.933 393.465 180.512 393.636 180L390.004 171.664H391.124L394.212 178.992L397.076 171.664H398.116L394.228 181.376C394.068 181.792 393.902 182.139 393.732 182.416C393.572 182.693 393.401 182.917 393.22 183.088C393.049 183.259 392.862 183.376 392.66 183.44C392.468 183.515 392.254 183.552 392.02 183.552C391.54 183.552 391.172 183.424 390.916 183.168L390.964 182.208ZM405.06 180H403.972V176.528C403.694 176.635 403.406 176.715 403.108 176.768C402.82 176.811 402.43 176.832 401.94 176.832C401.438 176.832 401.017 176.757 400.676 176.608C400.345 176.459 400.073 176.256 399.86 176C399.646 175.744 399.492 175.44 399.396 175.088C399.31 174.725 399.268 174.336 399.268 173.92V171.664H400.34V173.728C400.34 174.517 400.494 175.077 400.804 175.408C401.113 175.728 401.556 175.888 402.132 175.888C402.58 175.888 402.958 175.845 403.268 175.76C403.577 175.664 403.812 175.552 403.972 175.424V171.664H405.06V180ZM412.587 171.664H413.803L410.651 175.696L414.075 180H412.859L409.915 176.192H408.731V180H407.659V171.664H408.731V175.344H409.819L412.587 171.664ZM417.571 180.16C417.176 180.16 416.808 180.096 416.467 179.968C416.136 179.829 415.843 179.643 415.587 179.408C415.342 179.173 415.15 178.901 415.011 178.592C414.872 178.272 414.803 177.931 414.803 177.568C414.803 177.205 414.888 176.869 415.059 176.56C415.23 176.251 415.47 175.984 415.779 175.76C416.088 175.536 416.456 175.365 416.883 175.248C417.31 175.12 417.779 175.056 418.291 175.056C418.718 175.056 419.15 175.093 419.587 175.168C420.024 175.243 420.414 175.349 420.755 175.488V174.736C420.755 174 420.547 173.419 420.131 172.992C419.715 172.555 419.139 172.336 418.403 172.336C417.976 172.336 417.539 172.421 417.091 172.592C416.643 172.763 416.19 173.008 415.731 173.328L415.347 172.608C416.424 171.883 417.47 171.52 418.483 171.52C419.528 171.52 420.35 171.813 420.947 172.4C421.544 172.987 421.843 173.797 421.843 174.832V178.592C421.843 178.891 421.976 179.04 422.243 179.04V180C422.062 180.032 421.923 180.048 421.827 180.048C421.55 180.048 421.331 179.979 421.171 179.84C421.022 179.701 420.942 179.509 420.931 179.264L420.899 178.608C420.515 179.109 420.03 179.493 419.443 179.76C418.867 180.027 418.243 180.16 417.571 180.16ZM417.827 179.328C418.392 179.328 418.91 179.221 419.379 179.008C419.859 178.795 420.222 178.512 420.467 178.16C420.563 178.064 420.632 177.963 420.675 177.856C420.728 177.739 420.755 177.632 420.755 177.536V176.176C420.392 176.037 420.014 175.931 419.619 175.856C419.235 175.781 418.84 175.744 418.435 175.744C417.667 175.744 417.043 175.904 416.563 176.224C416.083 176.544 415.843 176.965 415.843 177.488C415.843 177.744 415.891 177.984 415.987 178.208C416.094 178.432 416.232 178.629 416.403 178.8C416.584 178.96 416.798 179.088 417.043 179.184C417.288 179.28 417.55 179.328 417.827 179.328ZM368.614 195.664C368.912 195.664 369.184 195.717 369.43 195.824C369.686 195.931 369.904 196.08 370.086 196.272C370.278 196.453 370.422 196.667 370.518 196.912C370.624 197.157 370.678 197.424 370.678 197.712C370.678 197.904 370.651 198.096 370.598 198.288C370.555 198.48 370.486 198.667 370.39 198.848C370.294 199.019 370.171 199.179 370.022 199.328C369.872 199.467 369.696 199.579 369.494 199.664C369.963 199.792 370.331 200.037 370.598 200.4C370.864 200.763 370.998 201.2 370.998 201.712C370.998 202.053 370.934 202.363 370.806 202.64C370.688 202.917 370.518 203.157 370.294 203.36C370.08 203.563 369.824 203.723 369.526 203.84C369.227 203.947 368.902 204 368.55 204H364.534V195.664H368.614ZM368.182 199.344C368.619 199.344 368.966 199.205 369.222 198.928C369.478 198.651 369.606 198.299 369.606 197.872C369.606 197.499 369.499 197.173 369.286 196.896C369.072 196.619 368.742 196.48 368.294 196.48H365.59V199.344H368.182ZM368.438 203.184C368.662 203.184 368.864 203.141 369.046 203.056C369.238 202.971 369.398 202.859 369.526 202.72C369.654 202.571 369.755 202.405 369.83 202.224C369.904 202.043 369.942 201.851 369.942 201.648C369.942 201.264 369.808 200.923 369.542 200.624C369.286 200.325 368.928 200.176 368.47 200.176H365.59V203.184H368.438ZM381.483 201.28L384.603 195.664H385.659V204H384.603V197.6L381.803 202.608H381.163L378.347 197.6V204H377.275V195.664H378.363L381.483 201.28ZM391.831 204.16C391.223 204.16 390.663 204.048 390.151 203.824C389.65 203.589 389.213 203.275 388.839 202.88C388.466 202.475 388.173 202.011 387.959 201.488C387.757 200.965 387.655 200.405 387.655 199.808C387.655 199.221 387.757 198.672 387.959 198.16C388.173 197.637 388.461 197.184 388.823 196.8C389.197 196.405 389.639 196.096 390.151 195.872C390.663 195.637 391.218 195.52 391.815 195.52C392.423 195.52 392.978 195.637 393.479 195.872C393.991 196.096 394.429 196.405 394.791 196.8C395.154 197.195 395.437 197.648 395.639 198.16C395.842 198.672 395.943 199.216 395.943 199.792C395.943 199.877 395.943 199.963 395.943 200.048C395.943 200.133 395.938 200.192 395.927 200.224H388.791C388.823 200.672 388.925 201.088 389.095 201.472C389.277 201.845 389.506 202.171 389.783 202.448C390.061 202.725 390.375 202.944 390.727 203.104C391.09 203.253 391.474 203.328 391.879 203.328C392.146 203.328 392.413 203.291 392.679 203.216C392.946 203.141 393.191 203.04 393.415 202.912C393.639 202.784 393.842 202.629 394.023 202.448C394.205 202.256 394.343 202.048 394.439 201.824L395.383 202.08C395.255 202.389 395.074 202.672 394.839 202.928C394.605 203.173 394.333 203.392 394.023 203.584C393.714 203.765 393.373 203.904 392.999 204C392.626 204.107 392.237 204.16 391.831 204.16ZM394.903 199.392C394.871 198.944 394.765 198.539 394.583 198.176C394.413 197.803 394.189 197.483 393.911 197.216C393.645 196.949 393.33 196.741 392.967 196.592C392.615 196.443 392.237 196.368 391.831 196.368C391.426 196.368 391.042 196.443 390.679 196.592C390.317 196.741 389.997 196.949 389.719 197.216C389.453 197.483 389.234 197.803 389.063 198.176C388.903 198.549 388.807 198.955 388.775 199.392H394.903ZM397.206 199.808C397.206 199.221 397.307 198.667 397.51 198.144C397.713 197.621 397.995 197.168 398.358 196.784C398.731 196.389 399.174 196.08 399.686 195.856C400.198 195.632 400.763 195.52 401.382 195.52C402.171 195.52 402.859 195.701 403.446 196.064C404.033 196.416 404.475 196.896 404.774 197.504L403.718 197.84C403.483 197.413 403.153 197.083 402.726 196.848C402.31 196.603 401.846 196.48 401.334 196.48C400.907 196.48 400.507 196.565 400.134 196.736C399.771 196.907 399.451 197.141 399.174 197.44C398.907 197.728 398.694 198.075 398.534 198.48C398.385 198.885 398.31 199.328 398.31 199.808C398.31 200.277 398.39 200.72 398.55 201.136C398.71 201.552 398.929 201.915 399.206 202.224C399.483 202.523 399.803 202.763 400.166 202.944C400.539 203.115 400.934 203.2 401.35 203.2C401.617 203.2 401.878 203.163 402.134 203.088C402.401 203.013 402.646 202.912 402.87 202.784C403.094 202.645 403.286 202.491 403.446 202.32C403.606 202.149 403.718 201.968 403.782 201.776L404.854 202.096C404.737 202.395 404.566 202.672 404.342 202.928C404.118 203.173 403.851 203.392 403.542 203.584C403.243 203.765 402.907 203.904 402.534 204C402.171 204.107 401.793 204.16 401.398 204.16C400.79 204.16 400.23 204.048 399.718 203.824C399.206 203.589 398.763 203.275 398.39 202.88C398.017 202.475 397.723 202.011 397.51 201.488C397.307 200.965 397.206 200.405 397.206 199.808ZM408.259 200.688C407.747 200.539 407.326 200.267 406.995 199.872C406.664 199.467 406.499 198.928 406.499 198.256C406.499 197.883 406.568 197.536 406.707 197.216C406.846 196.896 407.032 196.624 407.267 196.4C407.512 196.165 407.8 195.984 408.131 195.856C408.472 195.728 408.846 195.664 409.251 195.664H412.227V204H411.155V200.832H409.347L407.235 204H406.003L408.259 200.688ZM411.155 199.888V196.608H409.299C409.075 196.608 408.856 196.645 408.643 196.72C408.44 196.795 408.259 196.907 408.099 197.056C407.939 197.195 407.811 197.365 407.715 197.568C407.619 197.771 407.571 198 407.571 198.256C407.571 198.747 407.715 199.141 408.003 199.44C408.302 199.739 408.691 199.888 409.171 199.888H411.155ZM414.821 195.664H415.893V203.056H419.973V195.664H421.029V203.056H422.421V206.576H421.477V204H414.821V195.664Z" fill="#31384E"/>
<path d="M419.848 28.384C417.139 28.384 414.984 27.584 413.384 25.984C411.613 24.2133 410.728 21.3653 410.728 17.44C410.728 13.8133 411.56 10.8693 413.224 8.608C414.888 6.34667 417.331 5.216 420.552 5.216C423.155 5.216 425.491 6.03733 427.56 7.68L424.968 11.488C424.157 10.8693 423.411 10.4213 422.728 10.144C422.067 9.84533 421.288 9.696 420.392 9.696C419.069 9.696 418.024 10.176 417.256 11.136C416.509 12.0747 416.051 13.3227 415.88 14.88C417.331 13.92 418.877 13.44 420.52 13.44C422.824 13.44 424.712 14.0693 426.184 15.328C427.656 16.5867 428.392 18.3573 428.392 20.64C428.392 22.9013 427.581 24.7573 425.96 26.208C424.339 27.6587 422.301 28.384 419.848 28.384ZM416.808 23.232C417.512 23.8507 418.461 24.16 419.656 24.16C420.851 24.16 421.789 23.8507 422.472 23.232C423.155 22.6133 423.496 21.8027 423.496 20.8C423.496 19.84 423.144 19.0613 422.44 18.464C421.736 17.8453 420.787 17.536 419.592 17.536C418.397 17.536 417.459 17.8347 416.776 18.432C416.093 19.0293 415.752 19.8293 415.752 20.832C415.752 21.792 416.104 22.592 416.808 23.232ZM440.267 28.384C437.025 28.384 434.23 27.264 431.883 25.024L434.859 21.472C436.652 23.0933 438.433 23.904 440.203 23.904C441.377 23.904 442.294 23.6267 442.956 23.072C443.617 22.5173 443.948 21.7387 443.948 20.736C443.948 19.7973 443.585 19.0613 442.859 18.528C442.134 17.9733 441.174 17.696 439.979 17.696C438.785 17.696 437.537 17.9733 436.235 18.528L433.387 16.64L434.027 5.6H447.788V9.92H438.252L437.996 13.792C439.019 13.536 440.001 13.408 440.939 13.408C443.265 13.408 445.153 14.0053 446.604 15.2C448.054 16.3947 448.78 18.208 448.78 20.64C448.78 23.008 448.001 24.896 446.444 26.304C444.908 27.6907 442.849 28.384 440.267 28.384ZM469.832 25.088C467.976 27.2853 465.576 28.384 462.632 28.384C459.688 28.384 457.298 27.2853 455.464 25.088C453.629 22.8907 452.712 20.128 452.712 16.8C452.712 13.4933 453.64 10.7413 455.496 8.544C457.352 6.32533 459.752 5.216 462.696 5.216C465.618 5.216 467.997 6.31467 469.832 8.512C471.688 10.7093 472.616 13.472 472.616 16.8C472.616 20.1067 471.688 22.8693 469.832 25.088ZM459.112 21.92C460.029 23.264 461.224 23.936 462.696 23.936C464.168 23.936 465.341 23.2747 466.216 21.952C467.112 20.608 467.56 18.8907 467.56 16.8C467.56 14.752 467.101 13.056 466.184 11.712C465.266 10.3467 464.082 9.664 462.632 9.664C461.181 9.664 460.008 10.336 459.112 11.68C458.216 13.0027 457.768 14.7093 457.768 16.8C457.768 18.8693 458.216 20.576 459.112 21.92ZM493.527 25.088C491.671 27.2853 489.271 28.384 486.327 28.384C483.383 28.384 480.993 27.2853 479.159 25.088C477.324 22.8907 476.407 20.128 476.407 16.8C476.407 13.4933 477.335 10.7413 479.191 8.544C481.047 6.32533 483.447 5.216 486.391 5.216C489.313 5.216 491.692 6.31467 493.527 8.512C495.383 10.7093 496.311 13.472 496.311 16.8C496.311 20.1067 495.383 22.8693 493.527 25.088ZM482.807 21.92C483.724 23.264 484.919 23.936 486.391 23.936C487.863 23.936 489.036 23.2747 489.911 21.952C490.807 20.608 491.255 18.8907 491.255 16.8C491.255 14.752 490.796 13.056 489.879 11.712C488.961 10.3467 487.777 9.664 486.327 9.664C484.876 9.664 483.703 10.336 482.807 11.68C481.911 13.0027 481.463 14.7093 481.463 16.8C481.463 18.8693 481.911 20.576 482.807 21.92Z" fill="#0F50F6"/>
<path d="M341.204 80V70.118L339.008 70.658L338.432 68.39L342.05 67.31H343.94V80H341.204ZM356.376 78.362C355.332 79.598 353.982 80.216 352.326 80.216C350.67 80.216 349.326 79.598 348.294 78.362C347.262 77.126 346.746 75.572 346.746 73.7C346.746 71.84 347.268 70.292 348.312 69.056C349.356 67.808 350.706 67.184 352.362 67.184C354.006 67.184 355.344 67.802 356.376 69.038C357.42 70.274 357.942 71.828 357.942 73.7C357.942 75.56 357.42 77.114 356.376 78.362ZM350.346 76.58C350.862 77.336 351.534 77.714 352.362 77.714C353.19 77.714 353.85 77.342 354.342 76.598C354.846 75.842 355.098 74.876 355.098 73.7C355.098 72.548 354.84 71.594 354.324 70.838C353.808 70.07 353.142 69.686 352.326 69.686C351.51 69.686 350.85 70.064 350.346 70.82C349.842 71.564 349.59 72.524 349.59 73.7C349.59 74.864 349.842 75.824 350.346 76.58ZM369.704 78.362C368.66 79.598 367.31 80.216 365.654 80.216C363.998 80.216 362.654 79.598 361.622 78.362C360.59 77.126 360.074 75.572 360.074 73.7C360.074 71.84 360.596 70.292 361.64 69.056C362.684 67.808 364.034 67.184 365.69 67.184C367.334 67.184 368.672 67.802 369.704 69.038C370.748 70.274 371.27 71.828 371.27 73.7C371.27 75.56 370.748 77.114 369.704 78.362ZM363.674 76.58C364.19 77.336 364.862 77.714 365.69 77.714C366.518 77.714 367.178 77.342 367.67 76.598C368.174 75.842 368.426 74.876 368.426 73.7C368.426 72.548 368.168 71.594 367.652 70.838C367.136 70.07 366.47 69.686 365.654 69.686C364.838 69.686 364.178 70.064 363.674 70.82C363.17 71.564 362.918 72.524 362.918 73.7C362.918 74.864 363.17 75.824 363.674 76.58ZM383.033 78.362C381.989 79.598 380.639 80.216 378.983 80.216C377.327 80.216 375.983 79.598 374.951 78.362C373.919 77.126 373.403 75.572 373.403 73.7C373.403 71.84 373.925 70.292 374.969 69.056C376.013 67.808 377.363 67.184 379.019 67.184C380.663 67.184 382.001 67.802 383.033 69.038C384.077 70.274 384.599 71.828 384.599 73.7C384.599 75.56 384.077 77.114 383.033 78.362ZM377.003 76.58C377.519 77.336 378.191 77.714 379.019 77.714C379.847 77.714 380.507 77.342 380.999 76.598C381.503 75.842 381.755 74.876 381.755 73.7C381.755 72.548 381.497 71.594 380.981 70.838C380.465 70.07 379.799 69.686 378.983 69.686C378.167 69.686 377.507 70.064 377.003 70.82C376.499 71.564 376.247 72.524 376.247 73.7C376.247 74.864 376.499 75.824 377.003 76.58Z" fill="#31384E"/>
<path d="M398.48 20.568V18.952C397.061 18.7707 395.803 18.264 394.704 17.432L395.952 15.608C396.869 16.3013 397.739 16.7333 398.56 16.904V14.36C397.365 14.04 396.491 13.624 395.936 13.112C395.392 12.5893 395.12 11.864 395.12 10.936C395.12 10.0613 395.424 9.34667 396.032 8.792C396.64 8.23733 397.456 7.90667 398.48 7.8V6.872H400.144V7.832C401.221 7.98133 402.213 8.376 403.12 9.016L402.048 10.888C401.365 10.4293 400.704 10.1147 400.064 9.944V12.36C401.291 12.6907 402.176 13.128 402.72 13.672C403.264 14.2053 403.536 14.9253 403.536 15.832C403.536 16.7067 403.227 17.4213 402.608 17.976C402 18.5307 401.179 18.8667 400.144 18.984V20.568H398.48ZM398.56 11.96V9.8C397.824 9.896 397.456 10.2373 397.456 10.824C397.456 11.08 397.531 11.2987 397.68 11.48C397.84 11.6507 398.133 11.8107 398.56 11.96ZM400.064 16.984C400.821 16.8667 401.2 16.5147 401.2 15.928C401.2 15.6507 401.115 15.4267 400.944 15.256C400.784 15.0747 400.491 14.904 400.064 14.744V16.984Z" fill="#0F50F6"/>
<path d="M329.36 77.176V75.964C328.296 75.828 327.352 75.448 326.528 74.824L327.464 73.456C328.152 73.976 328.804 74.3 329.42 74.428V72.52C328.524 72.28 327.868 71.968 327.452 71.584C327.044 71.192 326.84 70.648 326.84 69.952C326.84 69.296 327.068 68.76 327.524 68.344C327.98 67.928 328.592 67.68 329.36 67.6V66.904H330.608V67.624C331.416 67.736 332.16 68.032 332.84 68.512L332.036 69.916C331.524 69.572 331.028 69.336 330.548 69.208V71.02C331.468 71.268 332.132 71.596 332.54 72.004C332.948 72.404 333.152 72.944 333.152 73.624C333.152 74.28 332.92 74.816 332.456 75.232C332 75.648 331.384 75.9 330.608 75.988V77.176H329.36ZM329.42 70.72V69.1C328.868 69.172 328.592 69.428 328.592 69.868C328.592 70.06 328.648 70.224 328.76 70.36C328.88 70.488 329.1 70.608 329.42 70.72ZM330.548 74.488C331.116 74.4 331.4 74.136 331.4 73.696C331.4 73.488 331.336 73.32 331.208 73.192C331.088 73.056 330.868 72.928 330.548 72.808V74.488Z" fill="#31384E"/>
<rect x="366" y="94" width="15" height="54" fill="#C4C4C4"/>
<rect x="395" y="53" width="15" height="95" fill="#4B7CF8"/>
</svg>
