<svg width="449" height="49" viewBox="0 0 449 49" fill="none" xmlns="http://www.w3.org/2000/svg">
<path d="M373.45 40H399.35V33.35H384.1L389.8 28.95C396 24.15 399 21.25 399 15.4C399 8.75 394.2 4.5 386.95 4.5C380.7 4.5 377.35 7.05 373.9 11.75L379.3 16.1C381.9 12.9 383.75 11.4 386.45 11.4C389.2 11.4 391.15 13 391.15 15.95C391.15 18.85 389.45 20.75 385.1 24.35L373.45 33.9V40ZM404.602 48.1C410.552 48 413.852 45.35 413.852 38.75V32H405.752V40H408.852V40.55C408.852 43.1 407.202 44.6 403.952 44.95L404.602 48.1ZM432.709 40.6C440.759 40.6 446.009 35.9 446.009 28.5C446.009 20.5 440.559 17.2 433.759 17.2C431.809 17.2 430.559 17.45 429.159 17.8L429.559 11.75H444.459V5H422.959L421.959 22.25L426.409 25.2C428.059 24.5 430.059 23.9 432.259 23.9C435.909 23.9 438.459 25.65 438.459 28.65C438.459 31.85 436.209 33.6 432.609 33.6C429.509 33.6 426.909 32.2 424.259 29.8L419.609 35.35C423.009 38.6 427.109 40.6 432.709 40.6Z" fill="#0F50F6"/>
<path d="M353.552 19H357.368L359.96 14.992L362.552 19H366.464L361.928 12.4L366.272 6.136H362.456L360.032 9.88L357.632 6.136H353.72L358.064 12.472L353.552 19Z" fill="#0F50F6"/>
<path d="M213.75 40.5C209.817 40.5 206.583 39.5667 204.05 37.7C201.517 35.8333 200.25 33.3667 200.25 30.3C200.25 26.4 202.133 23.5833 205.9 21.85C202.933 20.05 201.45 17.4667 201.45 14.1C201.45 11.3667 202.583 9.08333 204.85 7.25C207.15 5.41666 210.117 4.5 213.75 4.5C217.417 4.5 220.383 5.41666 222.65 7.25C224.917 9.08333 226.05 11.4 226.05 14.2C226.05 17.5 224.567 20.05 221.6 21.85C223.5 22.85 224.917 23.9833 225.85 25.25C226.783 26.5167 227.25 28.1667 227.25 30.2C227.25 33.3667 225.983 35.8833 223.45 37.75C220.95 39.5833 217.717 40.5 213.75 40.5ZM210.1 18.1C211.033 18.9 212.25 19.3 213.75 19.3C215.25 19.3 216.45 18.9 217.35 18.1C218.283 17.3 218.75 16.25 218.75 14.95C218.75 13.8167 218.283 12.85 217.35 12.05C216.45 11.25 215.25 10.85 213.75 10.85C212.217 10.85 211 11.25 210.1 12.05C209.2 12.85 208.75 13.8333 208.75 15C208.75 16.2333 209.2 17.2667 210.1 18.1ZM213.75 34.15C215.617 34.15 217.083 33.7333 218.15 32.9C219.25 32.0667 219.8 31 219.8 29.7C219.8 28.3667 219.233 27.3167 218.1 26.55C217 25.7833 215.55 25.4 213.75 25.4C211.95 25.4 210.483 25.8 209.35 26.6C208.25 27.3667 207.7 28.4333 207.7 29.8C207.7 31.0333 208.25 32.0667 209.35 32.9C210.45 33.7333 211.917 34.15 213.75 34.15Z" fill="#0F50F6"/>
<path d="M178.552 19L183.064 12.472L178.72 6.136H182.632L185.032 9.88L187.456 6.136H191.272L186.928 12.4L191.464 19H187.552L184.96 14.992L182.368 19H178.552Z" fill="#0F50F6"/>
<circle cx="20" cy="27" r="20" fill="#0F50F6"/>
<path d="M11 26.2121L18.4634 33L29 19" stroke="white" stroke-width="2" stroke-linecap="round" stroke-linejoin="round"/>
</svg>
