<svg width="425" height="48" viewBox="0 0 425 48" fill="none" xmlns="http://www.w3.org/2000/svg">
<path d="M22.45 39V32.9L34.1 23.35C36.4 21.45 37.9833 19.9333 38.85 18.8C39.7167 17.6333 40.15 16.35 40.15 14.95C40.15 13.5167 39.7167 12.4 38.85 11.6C37.9833 10.8 36.85 10.4 35.45 10.4C34.15 10.4 32.9667 10.7667 31.9 11.5C30.8667 12.2 29.6667 13.4 28.3 15.1L22.9 10.75C24.7333 8.25 26.6167 6.41666 28.55 5.25C30.5167 4.08333 32.9833 3.5 35.95 3.5C39.5833 3.5 42.5 4.5 44.7 6.5C46.9 8.46667 48 11.1 48 14.4C48 16.3 47.6333 18.0167 46.9 19.55C46.1667 21.05 45.2167 22.3833 44.05 23.55C42.8833 24.6833 41.1333 26.15 38.8 27.95L33.1 32.35H48.35V39H22.45ZM53.6023 47.1L52.9523 43.95C56.219 43.5833 57.8523 42.1167 57.8523 39.55V39H54.7523V31H62.8523V37.75C62.8523 40.95 62.069 43.2833 60.5023 44.75C58.969 46.25 56.669 47.0333 53.6023 47.1ZM82.209 39.5C78.2757 39.5 75.0423 38.5667 72.509 36.7C69.9757 34.8333 68.709 32.3667 68.709 29.3C68.709 25.4 70.5923 22.5833 74.359 20.85C71.3923 19.05 69.909 16.4667 69.909 13.1C69.909 10.3667 71.0423 8.08333 73.309 6.25C75.609 4.41666 78.5757 3.5 82.209 3.5C85.8757 3.5 88.8423 4.41666 91.109 6.25C93.3757 8.08333 94.509 10.4 94.509 13.2C94.509 16.5 93.0257 19.05 90.059 20.85C91.959 21.85 93.3757 22.9833 94.309 24.25C95.2423 25.5167 95.709 27.1667 95.709 29.2C95.709 32.3667 94.4423 34.8833 91.909 36.75C89.409 38.5833 86.1757 39.5 82.209 39.5ZM78.559 17.1C79.4923 17.9 80.709 18.3 82.209 18.3C83.709 18.3 84.909 17.9 85.809 17.1C86.7423 16.3 87.209 15.25 87.209 13.95C87.209 12.8167 86.7423 11.85 85.809 11.05C84.909 10.25 83.709 9.85 82.209 9.85C80.6757 9.85 79.459 10.25 78.559 11.05C77.659 11.85 77.209 12.8333 77.209 14C77.209 15.2333 77.659 16.2667 78.559 17.1ZM82.209 33.15C84.0757 33.15 85.5423 32.7333 86.609 31.9C87.709 31.0667 88.259 30 88.259 28.7C88.259 27.3667 87.6923 26.3167 86.559 25.55C85.459 24.7833 84.009 24.4 82.209 24.4C80.409 24.4 78.9423 24.8 77.809 25.6C76.709 26.3667 76.159 27.4333 76.159 28.8C76.159 30.0333 76.709 31.0667 77.809 31.9C78.909 32.7333 80.3757 33.15 82.209 33.15Z" fill="#0F50F6"/>
<path d="M0.552 19L5.064 12.472L0.72 6.136H4.632L7.032 9.88L9.456 6.136H13.272L8.928 12.4L13.464 19H9.552L6.96 14.992L4.368 19H0.552Z" fill="#0F50F6"/>
<path d="M216.9 39H224.5V3.75H219.25L209.2 6.75L210.8 13.05L216.9 11.55V39ZM249.494 39H256.844V31.45H261.544V25.2H256.844V3.75H250.344L231.144 26L232.394 31.45H249.494V39ZM240.194 25.2L249.494 14.3V25.2H240.194Z" fill="#0F50F6"/>
<path d="M188.552 19H192.368L194.96 14.992L197.552 19H201.464L196.928 12.4L201.272 6.136H197.456L195.032 9.88L192.632 6.136H188.72L193.064 12.472L188.552 19Z" fill="#0F50F6"/>
<circle cx="405" cy="20" r="20" fill="#0F50F6"/>
<path d="M396 19.2121L403.463 26L414 12" stroke="white" stroke-width="2" stroke-linecap="round" stroke-linejoin="round"/>
</svg>
