<svg width="164" height="164" viewBox="0 0 164 164" fill="none" xmlns="http://www.w3.org/2000/svg">
<path d="M77.4461 44.4294C89.3905 34.7151 107.372 41.5739 109.812 56.7752L116.22 96.6821C118.66 111.883 103.73 124.026 89.3447 118.539L51.5807 104.135C37.1957 98.6476 34.1449 79.646 46.0893 69.9317L77.4461 44.4294Z" fill="#F0F3FC"/>
<path d="M101.612 66.458C102.096 66.458 102.489 66.0652 102.489 65.5804V61.7766H105.122C105.607 61.7766 106 61.3838 106 60.8989V53.8777C106 53.3928 105.607 53 105.122 53H98.1011C97.6164 53 97.2234 53.3928 97.2234 53.8777V56.5106H59.7766V53.8777C59.7766 53.3928 59.3836 53 58.8989 53H51.8777C51.393 53 51 53.3928 51 53.8777V60.8989C51 61.3838 51.393 61.7766 51.8777 61.7766H54.5106V99.2234H51.8777C51.393 99.2234 51 99.6162 51 100.101V107.122C51 107.607 51.393 108 51.8777 108H58.8989C59.3836 108 59.7766 107.607 59.7766 107.122V104.489H97.2234V107.122C97.2234 107.607 97.6164 108 98.1011 108H105.122C105.607 108 106 107.607 106 107.122V100.101C106 99.6162 105.607 99.2234 105.122 99.2234H102.489V69.091C102.489 68.6062 102.096 68.2134 101.612 68.2134C101.127 68.2134 100.734 68.6062 100.734 69.091V99.2234H98.1011C97.6164 99.2234 97.2234 99.6162 97.2234 100.101V102.734H59.7766V100.101C59.7766 99.6162 59.3836 99.2234 58.8989 99.2234H56.266V61.7766H58.8989C59.3836 61.7766 59.7766 61.3838 59.7766 60.8989V58.266H97.2234V60.8989C97.2234 61.3838 97.6164 61.7766 98.1011 61.7766H100.734V65.5804C100.734 66.0651 101.127 66.458 101.612 66.458ZM98.9787 100.979H104.245V106.245H98.9787V100.979ZM58.0213 106.245H52.7553V100.979H58.0213V106.245ZM58.0213 60.0213H52.7553V54.7553H58.0213V60.0213ZM98.9787 54.7553H104.245V60.0213H98.9787V54.7553Z" fill="#2656F3"/>
<path d="M94.298 65.5804C94.298 65.0956 93.9051 64.7028 93.4204 64.7028H63.5799C63.0952 64.7028 62.7023 65.0956 62.7023 65.5804V80.4999C62.7023 80.9847 63.0952 81.3776 63.5799 81.3776H93.4204C93.9051 81.3776 94.298 80.9847 94.298 80.4999V65.5804ZM64.4576 67.0005L76.5376 73.0402L64.4576 79.0799V67.0005ZM67.2978 66.4581H89.7024L78.5001 72.059L67.2978 66.4581ZM78.5001 74.0214L89.7025 79.6223H67.2978L78.5001 74.0214ZM80.4627 73.0402L92.5427 67.0005V79.08L80.4627 73.0402Z" fill="#5FEADA"/>
<path d="M76.7448 94.5426H63.5799C63.0952 94.5426 62.7023 94.9354 62.7023 95.4203C62.7023 95.9051 63.0952 96.2979 63.5799 96.2979H76.7448C77.2295 96.2979 77.6225 95.9051 77.6225 95.4203C77.6225 94.9354 77.2295 94.5426 76.7448 94.5426Z" fill="#2656F3"/>
<path d="M93.4206 94.5426H80.2557C79.771 94.5426 79.3781 94.9354 79.3781 95.4203C79.3781 95.9051 79.771 96.2979 80.2557 96.2979H93.4206C93.9053 96.2979 94.2983 95.9051 94.2983 95.4203C94.2983 94.9354 93.9053 94.5426 93.4206 94.5426Z" fill="#2656F3"/>
<path d="M76.7448 90.8125H63.5799C63.0952 90.8125 62.7023 91.2053 62.7023 91.6902C62.7023 92.175 63.0952 92.5678 63.5799 92.5678H76.7448C77.2295 92.5678 77.6225 92.175 77.6225 91.6902C77.6225 91.2053 77.2295 90.8125 76.7448 90.8125Z" fill="#2656F3"/>
<path d="M93.4206 90.8125H80.2557C79.771 90.8125 79.3781 91.2053 79.3781 91.6902C79.3781 92.175 79.771 92.5678 80.2557 92.5678H93.4206C93.9053 92.5678 94.2983 92.175 94.2983 91.6902C94.2983 91.2053 93.9053 90.8125 93.4206 90.8125Z" fill="#2656F3"/>
<path d="M76.7448 87.0824H63.5799C63.0952 87.0824 62.7023 87.4752 62.7023 87.9601C62.7023 88.4449 63.0952 88.8377 63.5799 88.8377H76.7448C77.2295 88.8377 77.6225 88.4449 77.6225 87.9601C77.6225 87.4752 77.2295 87.0824 76.7448 87.0824Z" fill="#2656F3"/>
<path d="M93.4206 87.0824H80.2557C79.771 87.0824 79.3781 87.4752 79.3781 87.9601C79.3781 88.4449 79.771 88.8377 80.2557 88.8377H93.4206C93.9053 88.8377 94.2983 88.4449 94.2983 87.9601C94.2983 87.4752 93.9053 87.0824 93.4206 87.0824Z" fill="#2656F3"/>
<path d="M93.4204 83.3522H63.5799C63.0952 83.3522 62.7023 83.745 62.7023 84.2298C62.7023 84.7147 63.0952 85.1075 63.5799 85.1075H93.4204C93.9051 85.1075 94.298 84.7147 94.298 84.2298C94.298 83.745 93.9051 83.3522 93.4204 83.3522Z" fill="#2656F3"/>
</svg>
